<?xml version="1.0" encoding="UTF-8" standalone="no"?><svg xmlns="http://www.w3.org/2000/svg" xmlns:xlink="http://www.w3.org/1999/xlink" clip-rule="evenodd" stroke-miterlimit="4.00" viewBox="0 0 1024 768"><desc>SVG generated by Keynote</desc><defs></defs><g transform="matrix(1.00, 0.00, -0.00, -1.00, 0.0, 768.0)"><path d="M 0.0 768.0 L 1024.0 768.0 L 1024.0 0.0 L 0.0 0.0 Z M 0.0 768.0 " fill="#FEFFFF"></path><text xml:space="preserve" font-family="Helvetica-Light" font-size="80.0" fill="#000000" transform="matrix(1.00, 0.00, -0.00, -1.00, 92.0, 618.0)">A</text><text xml:space="preserve" font-family="Helvetica-Light" font-size="80.0" fill="#000000" transform="matrix(1.00, 0.00, -0.00, -1.00, 145.4, 618.0)">d</text><text xml:space="preserve" font-family="Helvetica-Light" font-size="80.0" fill="#000000" transform="matrix(1.00, 0.00, -0.00, -1.00, 194.2, 618.0)">d</text><text xml:space="preserve" font-family="Helvetica-Light" font-size="80.0" fill="#000000" transform="matrix(1.00, 0.00, -0.00, -1.00, 243.1, 618.0)">i</text><text xml:space="preserve" font-family="Helvetica-Light" font-size="80.0" fill="#000000" transform="matrix(1.00, 0.00, -0.00, -1.00, 260.9, 618.0)">n</text><text xml:space="preserve" font-family="Helvetica-Light" font-size="80.0" fill="#000000" transform="matrix(1.00, 0.00, -0.00, -1.00, 305.4, 618.0)">g</text><text xml:space="preserve" font-family="Helvetica-Light" font-size="80.0" fill="#000000" transform="matrix(1.00, 0.00, -0.00, -1.00, 354.2, 618.0)"> </text><text xml:space="preserve" font-family="Helvetica-Light" font-size="80.0" fill="#000000" transform="matrix(1.00, 0.00, -0.00, -1.00, 376.5, 618.0)">K</text><text xml:space="preserve" font-family="Helvetica-Light" font-size="80.0" fill="#000000" transform="matrix(1.00, 0.00, -0.00, -1.00, 429.8, 618.0)">e</text><text xml:space="preserve" font-family="Helvetica-Light" font-size="80.0" fill="#000000" transform="matrix(1.00, 0.00, -0.00, -1.00, 474.3, 618.0)">y</text><text xml:space="preserve" font-family="Helvetica-Light" font-size="80.0" fill="#000000" transform="matrix(1.00, 0.00, -0.00, -1.00, 514.3, 618.0)">/</text><text xml:space="preserve" font-family="Helvetica-Light" font-size="80.0" fill="#000000" transform="matrix(1.00, 0.00, -0.00, -1.00, 536.6, 618.0)">V</text><text xml:space="preserve" font-family="Helvetica-Light" font-size="80.0" fill="#000000" transform="matrix(1.00, 0.00, -0.00, -1.00, 581.0, 618.0)">a</text><text xml:space="preserve" font-family="Helvetica-Light" font-size="80.0" fill="#000000" transform="matrix(1.00, 0.00, -0.00, -1.00, 625.5, 618.0)">l</text><text xml:space="preserve" font-family="Helvetica-Light" font-size="80.0" fill="#000000" transform="matrix(1.00, 0.00, -0.00, -1.00, 643.3, 618.0)">u</text><text xml:space="preserve" font-family="Helvetica-Light" font-size="80.0" fill="#000000" transform="matrix(1.00, 0.00, -0.00, -1.00, 687.8, 618.0)">e</text><text xml:space="preserve" font-family="Helvetica-Light" font-size="80.0" fill="#000000" transform="matrix(1.00, 0.00, -0.00, -1.00, 732.2, 618.0)"> </text><text xml:space="preserve" font-family="Helvetica-Light" font-size="80.0" fill="#000000" transform="matrix(1.00, 0.00, -0.00, -1.00, 754.5, 618.0)">P</text><text xml:space="preserve" font-family="Helvetica-Light" font-size="80.0" fill="#000000" transform="matrix(1.00, 0.00, -0.00, -1.00, 803.4, 618.0)">a</text><text xml:space="preserve" font-family="Helvetica-Light" font-size="80.0" fill="#000000" transform="matrix(1.00, 0.00, -0.00, -1.00, 847.8, 618.0)">i</text><text xml:space="preserve" font-family="Helvetica-Light" font-size="80.0" fill="#000000" transform="matrix(1.00, 0.00, -0.00, -1.00, 865.6, 618.0)">r</text><text xml:space="preserve" font-family="Helvetica-Light" font-size="80.0" fill="#000000" transform="matrix(1.00, 0.00, -0.00, -1.00, 892.2, 618.0)">s</text><text xml:space="preserve" font-family="Helvetica-Light" font-size="27.0" fill="#000000" transform="matrix(1.00, 0.00, -0.00, -1.00, 79.0, 464.7)">•</text><text xml:space="preserve" font-family="Helvetica-Light" font-size="36.0" fill="#000000" transform="matrix(1.00, 0.00, -0.00, -1.00, 114.0, 461.0)">d</text><text xml:space="preserve" font-family="Helvetica-Light" font-size="36.0" fill="#000000" transform="matrix(1.00, 0.00, -0.00, -1.00, 136.0, 461.0)">o</text><text xml:space="preserve" font-family="Helvetica-Light" font-size="36.0" fill="#000000" transform="matrix(1.00, 0.00, -0.00, -1.00, 156.0, 461.0)">t</text><text xml:space="preserve" font-family="Helvetica-Light" font-size="36.0" fill="#000000" transform="matrix(1.00, 0.00, -0.00, -1.00, 166.0, 461.0)"> </text><text xml:space="preserve" font-family="Helvetica-Light" font-size="36.0" fill="#000000" transform="matrix(1.00, 0.00, -0.00, -1.00, 176.0, 461.0)">n</text><text xml:space="preserve" font-family="Helvetica-Light" font-size="36.0" fill="#000000" transform="matrix(1.00, 0.00, -0.00, -1.00, 196.0, 461.0)">o</text><text xml:space="preserve" font-family="Helvetica-Light" font-size="36.0" fill="#000000" transform="matrix(1.00, 0.00, -0.00, -1.00, 216.1, 461.0)">t</text><text xml:space="preserve" font-family="Helvetica-Light" font-size="36.0" fill="#000000" transform="matrix(1.00, 0.00, -0.00, -1.00, 226.1, 461.0)">a</text><text xml:space="preserve" font-family="Helvetica-Light" font-size="36.0" fill="#000000" transform="matrix(1.00, 0.00, -0.00, -1.00, 246.1, 461.0)">t</text><text xml:space="preserve" font-family="Helvetica-Light" font-size="36.0" fill="#000000" transform="matrix(1.00, 0.00, -0.00, -1.00, 256.1, 461.0)">i</text><text xml:space="preserve" font-family="Helvetica-Light" font-size="36.0" fill="#000000" transform="matrix(1.00, 0.00, -0.00, -1.00, 264.1, 461.0)">o</text><text xml:space="preserve" font-family="Helvetica-Light" font-size="36.0" fill="#000000" transform="matrix(1.00, 0.00, -0.00, -1.00, 284.1, 461.0)">n</text><text xml:space="preserve" font-family="Helvetica-Light" font-size="36.0" fill="#000000" transform="matrix(1.00, 0.00, -0.00, -1.00, 304.1, 461.0)"> </text><text xml:space="preserve" font-family="CourierNewPS-BoldMT" font-weight="bold" font-size="31.0" fill="#000000" transform="matrix(1.00, 0.00, -0.00, -1.00, 115.0, 381.0)">c</text><text xml:space="preserve" font-family="CourierNewPS-BoldMT" font-weight="bold" font-size="31.0" fill="#000000" transform="matrix(1.00, 0.00, -0.00, -1.00, 133.6, 381.0)">o</text><text xml:space="preserve" font-family="CourierNewPS-BoldMT" font-weight="bold" font-size="31.0" fill="#000000" transform="matrix(1.00, 0.00, -0.00, -1.00, 152.2, 381.0)">u</text><text xml:space="preserve" font-family="CourierNewPS-BoldMT" font-weight="bold" font-size="31.0" fill="#000000" transform="matrix(1.00, 0.00, -0.00, -1.00, 170.8, 381.0)">r</text><text xml:space="preserve" font-family="CourierNewPS-BoldMT" font-weight="bold" font-size="31.0" fill="#000000" transform="matrix(1.00, 0.00, -0.00, -1.00, 189.4, 381.0)">s</text><text xml:space="preserve" font-family="CourierNewPS-BoldMT" font-weight="bold" font-size="31.0" fill="#000000" transform="matrix(1.00, 0.00, -0.00, -1.00, 208.0, 381.0)">e</text><text xml:space="preserve" font-family="CourierNewPSMT" font-size="31.0" fill="#000000" transform="matrix(1.00, 0.00, -0.00, -1.00, 226.6, 381.0)">.</text><text xml:space="preserve" font-family="CourierNewPSMT" font-size="31.0" fill="#000000" transform="matrix(1.00, 0.00, -0.00, -1.00, 245.2, 381.0)">i</text><text xml:space="preserve" font-family="CourierNewPSMT" font-size="31.0" fill="#000000" transform="matrix(1.00, 0.00, -0.00, -1.00, 263.8, 381.0)">n</text><text xml:space="preserve" font-family="CourierNewPSMT" font-size="31.0" fill="#000000" transform="matrix(1.00, 0.00, -0.00, -1.00, 282.4, 381.0)">s</text><text xml:space="preserve" font-family="CourierNewPSMT" font-size="31.0" fill="#000000" transform="matrix(1.00, 0.00, -0.00, -1.00, 301.0, 381.0)">t</text><text xml:space="preserve" font-family="CourierNewPSMT" font-size="31.0" fill="#000000" transform="matrix(1.00, 0.00, -0.00, -1.00, 319.6, 381.0)">r</text><text xml:space="preserve" font-family="CourierNewPSMT" font-size="31.0" fill="#000000" transform="matrix(1.00, 0.00, -0.00, -1.00, 338.3, 381.0)">u</text><text xml:space="preserve" font-family="CourierNewPSMT" font-size="31.0" fill="#000000" transform="matrix(1.00, 0.00, -0.00, -1.00, 356.9, 381.0)">c</text><text xml:space="preserve" font-family="CourierNewPSMT" font-size="31.0" fill="#000000" transform="matrix(1.00, 0.00, -0.00, -1.00, 375.5, 381.0)">t</text><text xml:space="preserve" font-family="CourierNewPSMT" font-size="31.0" fill="#000000" transform="matrix(1.00, 0.00, -0.00, -1.00, 394.1, 381.0)">o</text><text xml:space="preserve" font-family="CourierNewPSMT" font-size="31.0" fill="#000000" transform="matrix(1.00, 0.00, -0.00, -1.00, 412.7, 381.0)">r</text><text xml:space="preserve" font-family="CourierNewPSMT" font-size="31.0" fill="#000000" transform="matrix(1.00, 0.00, -0.00, -1.00, 431.3, 381.0)"> </text><text xml:space="preserve" font-family="CourierNewPSMT" font-size="31.0" fill="#000000" transform="matrix(1.00, 0.00, -0.00, -1.00, 449.9, 381.0)">=</text><text xml:space="preserve" font-family="CourierNewPSMT" font-size="31.0" fill="#000000" transform="matrix(1.00, 0.00, -0.00, -1.00, 468.5, 381.0)"> </text><text xml:space="preserve" font-family="CourierNewPSMT" font-size="31.0" fill="#CC1C00" transform="matrix(1.00, 0.00, -0.00, -1.00, 487.1, 381.0)">"</text><text xml:space="preserve" font-family="CourierNewPSMT" font-size="31.0" fill="#CC1C00" transform="matrix(1.00, 0.00, -0.00, -1.00, 505.7, 381.0)">S</text><text xml:space="preserve" font-family="CourierNewPSMT" font-size="31.0" fill="#CC1C00" transform="matrix(1.00, 0.00, -0.00, -1.00, 524.3, 381.0)">o</text><text xml:space="preserve" font-family="CourierNewPSMT" font-size="31.0" fill="#CC1C00" transform="matrix(1.00, 0.00, -0.00, -1.00, 542.9, 381.0)">p</text><text xml:space="preserve" font-family="CourierNewPSMT" font-size="31.0" fill="#CC1C00" transform="matrix(1.00, 0.00, -0.00, -1.00, 561.5, 381.0)">h</text><text xml:space="preserve" font-family="CourierNewPSMT" font-size="31.0" fill="#CC1C00" transform="matrix(1.00, 0.00, -0.00, -1.00, 580.1, 381.0)">i</text><text xml:space="preserve" font-family="CourierNewPSMT" font-size="31.0" fill="#CC1C00" transform="matrix(1.00, 0.00, -0.00, -1.00, 598.7, 381.0)">e</text><text xml:space="preserve" font-family="CourierNewPSMT" font-size="31.0" fill="#CC1C00" transform="matrix(1.00, 0.00, -0.00, -1.00, 617.3, 381.0)"> </text><text xml:space="preserve" font-family="CourierNewPSMT" font-size="31.0" fill="#CC1C00" transform="matrix(1.00, 0.00, -0.00, -1.00, 635.9, 381.0)">D</text><text xml:space="preserve" font-family="CourierNewPSMT" font-size="31.0" fill="#CC1C00" transform="matrix(1.00, 0.00, -0.00, -1.00, 654.5, 381.0)">e</text><text xml:space="preserve" font-family="CourierNewPSMT" font-size="31.0" fill="#CC1C00" transform="matrix(1.00, 0.00, -0.00, -1.00, 673.1, 381.0)">B</text><text xml:space="preserve" font-family="CourierNewPSMT" font-size="31.0" fill="#CC1C00" transform="matrix(1.00, 0.00, -0.00, -1.00, 691.7, 381.0)">e</text><text xml:space="preserve" font-family="CourierNewPSMT" font-size="31.0" fill="#CC1C00" transform="matrix(1.00, 0.00, -0.00, -1.00, 710.3, 381.0)">n</text><text xml:space="preserve" font-family="CourierNewPSMT" font-size="31.0" fill="#CC1C00" transform="matrix(1.00, 0.00, -0.00, -1.00, 728.9, 381.0)">e</text><text xml:space="preserve" font-family="CourierNewPSMT" font-size="31.0" fill="#CC1C00" transform="matrix(1.00, 0.00, -0.00, -1.00, 747.5, 381.0)">d</text><text xml:space="preserve" font-family="CourierNewPSMT" font-size="31.0" fill="#CC1C00" transform="matrix(1.00, 0.00, -0.00, -1.00, 766.2, 381.0)">e</text><text xml:space="preserve" font-family="CourierNewPSMT" font-size="31.0" fill="#CC1C00" transform="matrix(1.00, 0.00, -0.00, -1.00, 784.8, 381.0)">t</text><text xml:space="preserve" font-family="CourierNewPSMT" font-size="31.0" fill="#CC1C00" transform="matrix(1.00, 0.00, -0.00, -1.00, 803.4, 381.0)">t</text><text xml:space="preserve" font-family="CourierNewPSMT" font-size="31.0" fill="#CC1C00" transform="matrix(1.00, 0.00, -0.00, -1.00, 822.0, 381.0)">o</text><text xml:space="preserve" font-family="CourierNewPSMT" font-size="31.0" fill="#CC1C00" transform="matrix(1.00, 0.00, -0.00, -1.00, 840.6, 381.0)">"</text><text xml:space="preserve" font-family="CourierNewPSMT" font-size="31.0" fill="#000000" transform="matrix(1.00, 0.00, -0.00, -1.00, 859.1, 381.0)"> </text><text xml:space="preserve" font-family="Helvetica-Light" font-size="27.0" fill="#000000" transform="matrix(1.00, 0.00, -0.00, -1.00, 79.0, 265.7)">•</text><text xml:space="preserve" font-family="Helvetica-Light" font-size="36.0" fill="#000000" transform="matrix(1.00, 0.00, -0.00, -1.00, 114.0, 262.0)">b</text><text xml:space="preserve" font-family="Helvetica-Light" font-size="36.0" fill="#000000" transform="matrix(1.00, 0.00, -0.00, -1.00, 136.0, 262.0)">r</text><text xml:space="preserve" font-family="Helvetica-Light" font-size="36.0" fill="#000000" transform="matrix(1.00, 0.00, -0.00, -1.00, 148.0, 262.0)">a</text><text xml:space="preserve" font-family="Helvetica-Light" font-size="36.0" fill="#000000" transform="matrix(1.00, 0.00, -0.00, -1.00, 168.0, 262.0)">c</text><text xml:space="preserve" font-family="Helvetica-Light" font-size="36.0" fill="#000000" transform="matrix(1.00, 0.00, -0.00, -1.00, 188.0, 262.0)">k</text><text xml:space="preserve" font-family="Helvetica-Light" font-size="36.0" fill="#000000" transform="matrix(1.00, 0.00, -0.00, -1.00, 206.0, 262.0)">e</text><text xml:space="preserve" font-family="Helvetica-Light" font-size="36.0" fill="#000000" transform="matrix(1.00, 0.00, -0.00, -1.00, 226.0, 262.0)">t</text><text xml:space="preserve" font-family="Helvetica-Light" font-size="36.0" fill="#000000" transform="matrix(1.00, 0.00, -0.00, -1.00, 236.0, 262.0)"> </text><text xml:space="preserve" font-family="Helvetica-Light" font-size="36.0" fill="#000000" transform="matrix(1.00, 0.00, -0.00, -1.00, 246.0, 262.0)">m</text><text xml:space="preserve" font-family="Helvetica-Light" font-size="36.0" fill="#000000" transform="matrix(1.00, 0.00, -0.00, -1.00, 276.0, 262.0)">e</text><text xml:space="preserve" font-family="Helvetica-Light" font-size="36.0" fill="#000000" transform="matrix(1.00, 0.00, -0.00, -1.00, 296.1, 262.0)">t</text><text xml:space="preserve" font-family="Helvetica-Light" font-size="36.0" fill="#000000" transform="matrix(1.00, 0.00, -0.00, -1.00, 306.1, 262.0)">h</text><text xml:space="preserve" font-family="Helvetica-Light" font-size="36.0" fill="#000000" transform="matrix(1.00, 0.00, -0.00, -1.00, 326.1, 262.0)">o</text><text xml:space="preserve" font-family="Helvetica-Light" font-size="36.0" fill="#000000" transform="matrix(1.00, 0.00, -0.00, -1.00, 346.1, 262.0)">d</text><text xml:space="preserve" font-family="Helvetica-Light" font-size="36.0" fill="#000000" transform="matrix(1.00, 0.00, -0.00, -1.00, 368.1, 262.0)"> </text><text xml:space="preserve" font-family="CourierNewPS-BoldMT" font-weight="bold" font-size="31.0" fill="#000000" transform="matrix(1.00, 0.00, -0.00, -1.00, 115.0, 143.0)">c</text><text xml:space="preserve" font-family="CourierNewPS-BoldMT" font-weight="bold" font-size="31.0" fill="#000000" transform="matrix(1.00, 0.00, -0.00, -1.00, 133.6, 143.0)">o</text><text xml:space="preserve" font-family="CourierNewPS-BoldMT" font-weight="bold" font-size="31.0" fill="#000000" transform="matrix(1.00, 0.00, -0.00, -1.00, 152.2, 143.0)">u</text><text xml:space="preserve" font-family="CourierNewPS-BoldMT" font-weight="bold" font-size="31.0" fill="#000000" transform="matrix(1.00, 0.00, -0.00, -1.00, 170.8, 143.0)">r</text><text xml:space="preserve" font-family="CourierNewPS-BoldMT" font-weight="bold" font-size="31.0" fill="#000000" transform="matrix(1.00, 0.00, -0.00, -1.00, 189.4, 143.0)">s</text><text xml:space="preserve" font-family="CourierNewPS-BoldMT" font-weight="bold" font-size="31.0" fill="#000000" transform="matrix(1.00, 0.00, -0.00, -1.00, 208.0, 143.0)">e</text><text xml:space="preserve" font-family="CourierNewPSMT" font-size="31.0" fill="#000000" transform="matrix(1.00, 0.00, -0.00, -1.00, 226.6, 143.0)">[</text><text xml:space="preserve" font-family="CourierNewPSMT" font-size="31.0" fill="#CC1C00" transform="matrix(1.00, 0.00, -0.00, -1.00, 245.2, 143.0)">"</text><text xml:space="preserve" font-family="CourierNewPSMT" font-size="31.0" fill="#CC1C00" transform="matrix(1.00, 0.00, -0.00, -1.00, 263.8, 143.0)">i</text><text xml:space="preserve" font-family="CourierNewPSMT" font-size="31.0" fill="#CC1C00" transform="matrix(1.00, 0.00, -0.00, -1.00, 282.4, 143.0)">n</text><text xml:space="preserve" font-family="CourierNewPSMT" font-size="31.0" fill="#CC1C00" transform="matrix(1.00, 0.00, -0.00, -1.00, 301.0, 143.0)">s</text><text xml:space="preserve" font-family="CourierNewPSMT" font-size="31.0" fill="#CC1C00" transform="matrix(1.00, 0.00, -0.00, -1.00, 319.6, 143.0)">t</text><text xml:space="preserve" font-family="CourierNewPSMT" font-size="31.0" fill="#CC1C00" transform="matrix(1.00, 0.00, -0.00, -1.00, 338.3, 143.0)">r</text><text xml:space="preserve" font-family="CourierNewPSMT" font-size="31.0" fill="#CC1C00" transform="matrix(1.00, 0.00, -0.00, -1.00, 356.9, 143.0)">u</text><text xml:space="preserve" font-family="CourierNewPSMT" font-size="31.0" fill="#CC1C00" transform="matrix(1.00, 0.00, -0.00, -1.00, 375.5, 143.0)">c</text><text xml:space="preserve" font-family="CourierNewPSMT" font-size="31.0" fill="#CC1C00" transform="matrix(1.00, 0.00, -0.00, -1.00, 394.1, 143.0)">t</text><text xml:space="preserve" font-family="CourierNewPSMT" font-size="31.0" fill="#CC1C00" transform="matrix(1.00, 0.00, -0.00, -1.00, 412.7, 143.0)">o</text><text xml:space="preserve" font-family="CourierNewPSMT" font-size="31.0" fill="#CC1C00" transform="matrix(1.00, 0.00, -0.00, -1.00, 431.3, 143.0)">r</text><text xml:space="preserve" font-family="CourierNewPSMT" font-size="31.0" fill="#CC1C00" transform="matrix(1.00, 0.00, -0.00, -1.00, 449.9, 143.0)">"</text><text xml:space="preserve" font-family="CourierNewPSMT" font-size="31.0" fill="#000000" transform="matrix(1.00, 0.00, -0.00, -1.00, 468.5, 143.0)">]</text><text xml:space="preserve" font-family="CourierNewPSMT" font-size="31.0" fill="#000000" transform="matrix(1.00, 0.00, -0.00, -1.00, 487.1, 143.0)"> </text><text xml:space="preserve" font-family="CourierNewPSMT" font-size="31.0" fill="#000000" transform="matrix(1.00, 0.00, -0.00, -1.00, 505.7, 143.0)">=</text><text xml:space="preserve" font-family="CourierNewPSMT" font-size="31.0" fill="#000000" transform="matrix(1.00, 0.00, -0.00, -1.00, 524.3, 143.0)"> </text><text xml:space="preserve" font-family="CourierNewPSMT" font-size="31.0" fill="#CC1C00" transform="matrix(1.00, 0.00, -0.00, -1.00, 542.9, 143.0)">"</text><text xml:space="preserve" font-family="CourierNewPSMT" font-size="31.0" fill="#CC1C00" transform="matrix(1.00, 0.00, -0.00, -1.00, 561.5, 143.0)">S</text><text xml:space="preserve" font-family="CourierNewPSMT" font-size="31.0" fill="#CC1C00" transform="matrix(1.00, 0.00, -0.00, -1.00, 580.1, 143.0)">o</text><text xml:space="preserve" font-family="CourierNewPSMT" font-size="31.0" fill="#CC1C00" transform="matrix(1.00, 0.00, -0.00, -1.00, 598.7, 143.0)">p</text><text xml:space="preserve" font-family="CourierNewPSMT" font-size="31.0" fill="#CC1C00" transform="matrix(1.00, 0.00, -0.00, -1.00, 617.3, 143.0)">h</text><text xml:space="preserve" font-family="CourierNewPSMT" font-size="31.0" fill="#CC1C00" transform="matrix(1.00, 0.00, -0.00, -1.00, 635.9, 143.0)">i</text><text xml:space="preserve" font-family="CourierNewPSMT" font-size="31.0" fill="#CC1C00" transform="matrix(1.00, 0.00, -0.00, -1.00, 654.5, 143.0)">e</text><text xml:space="preserve" font-family="CourierNewPSMT" font-size="31.0" fill="#CC1C00" transform="matrix(1.00, 0.00, -0.00, -1.00, 673.1, 143.0)"> </text><text xml:space="preserve" font-family="CourierNewPSMT" font-size="31.0" fill="#CC1C00" transform="matrix(1.00, 0.00, -0.00, -1.00, 691.7, 143.0)">D</text><text xml:space="preserve" font-family="CourierNewPSMT" font-size="31.0" fill="#CC1C00" transform="matrix(1.00, 0.00, -0.00, -1.00, 710.3, 143.0)">e</text><text xml:space="preserve" font-family="CourierNewPSMT" font-size="31.0" fill="#CC1C00" transform="matrix(1.00, 0.00, -0.00, -1.00, 728.9, 143.0)">B</text><text xml:space="preserve" font-family="CourierNewPSMT" font-size="31.0" fill="#CC1C00" transform="matrix(1.00, 0.00, -0.00, -1.00, 747.5, 143.0)">e</text><text xml:space="preserve" font-family="CourierNewPSMT" font-size="31.0" fill="#CC1C00" transform="matrix(1.00, 0.00, -0.00, -1.00, 766.1, 143.0)">n</text><text xml:space="preserve" font-family="CourierNewPSMT" font-size="31.0" fill="#CC1C00" transform="matrix(1.00, 0.00, -0.00, -1.00, 784.7, 143.0)">e</text><text xml:space="preserve" font-family="CourierNewPSMT" font-size="31.0" fill="#CC1C00" transform="matrix(1.00, 0.00, -0.00, -1.00, 803.4, 143.0)">d</text><text xml:space="preserve" font-family="CourierNewPSMT" font-size="31.0" fill="#CC1C00" transform="matrix(1.00, 0.00, -0.00, -1.00, 822.0, 143.0)">e</text><text xml:space="preserve" font-family="CourierNewPSMT" font-size="31.0" fill="#CC1C00" transform="matrix(1.00, 0.00, -0.00, -1.00, 840.6, 143.0)">t</text><text xml:space="preserve" font-family="CourierNewPSMT" font-size="31.0" fill="#CC1C00" transform="matrix(1.00, 0.00, -0.00, -1.00, 859.2, 143.0)">t</text><text xml:space="preserve" font-family="CourierNewPSMT" font-size="31.0" fill="#CC1C00" transform="matrix(1.00, 0.00, -0.00, -1.00, 877.8, 143.0)">o</text><text xml:space="preserve" font-family="CourierNewPSMT" font-size="31.0" fill="#CC1C00" transform="matrix(1.00, 0.00, -0.00, -1.00, 896.4, 143.0)">"</text></g></svg>