<?xml version="1.0" encoding="UTF-8" standalone="no"?><svg xmlns="http://www.w3.org/2000/svg" xmlns:xlink="http://www.w3.org/1999/xlink" clip-rule="evenodd" stroke-miterlimit="4.00" viewBox="0 0 1024 768"><desc>SVG generated by Keynote</desc><defs></defs><g transform="matrix(1.00, 0.00, -0.00, -1.00, 0.0, 768.0)"><path d="M 0.0 768.0 L 1024.0 768.0 L 1024.0 0.0 L 0.0 0.0 Z M 0.0 768.0 " fill="#FEFFFF"></path><text xml:space="preserve" font-family="Helvetica-Light" font-size="80.0" fill="#000000" transform="matrix(1.00, 0.00, -0.00, -1.00, 133.0, 618.0)">T</text><text xml:space="preserve" font-family="Helvetica-Light" font-size="80.0" fill="#000000" transform="matrix(1.00, 0.00, -0.00, -1.00, 177.5, 618.0)">h</text><text xml:space="preserve" font-family="Helvetica-Light" font-size="80.0" fill="#000000" transform="matrix(1.00, 0.00, -0.00, -1.00, 222.0, 618.0)">e</text><text xml:space="preserve" font-family="Helvetica-Light" font-size="80.0" fill="#000000" transform="matrix(1.00, 0.00, -0.00, -1.00, 266.4, 618.0)"> </text><text xml:space="preserve" font-family="Helvetica-Light" font-size="80.0" fill="#000000" transform="matrix(1.00, 0.00, -0.00, -1.00, 288.7, 618.0)">S</text><text xml:space="preserve" font-family="Helvetica-Light" font-size="80.0" fill="#000000" transform="matrix(1.00, 0.00, -0.00, -1.00, 337.6, 618.0)">p</text><text xml:space="preserve" font-family="Helvetica-Light" font-size="80.0" fill="#000000" transform="matrix(1.00, 0.00, -0.00, -1.00, 386.4, 618.0)">r</text><text xml:space="preserve" font-family="Helvetica-Light" font-size="80.0" fill="#000000" transform="matrix(1.00, 0.00, -0.00, -1.00, 411.6, 618.0)">e</text><text xml:space="preserve" font-family="Helvetica-Light" font-size="80.0" fill="#000000" transform="matrix(1.00, 0.00, -0.00, -1.00, 456.1, 618.0)">a</text><text xml:space="preserve" font-family="Helvetica-Light" font-size="80.0" fill="#000000" transform="matrix(1.00, 0.00, -0.00, -1.00, 500.6, 618.0)">d</text><text xml:space="preserve" font-family="Helvetica-Light" font-size="80.0" fill="#000000" transform="matrix(1.00, 0.00, -0.00, -1.00, 549.5, 618.0)"> </text><text xml:space="preserve" font-family="Helvetica-Light" font-size="80.0" fill="#000000" transform="matrix(1.00, 0.00, -0.00, -1.00, 571.7, 618.0)">O</text><text xml:space="preserve" font-family="Helvetica-Light" font-size="80.0" fill="#000000" transform="matrix(1.00, 0.00, -0.00, -1.00, 634.0, 618.0)">p</text><text xml:space="preserve" font-family="Helvetica-Light" font-size="80.0" fill="#000000" transform="matrix(1.00, 0.00, -0.00, -1.00, 682.8, 618.0)">e</text><text xml:space="preserve" font-family="Helvetica-Light" font-size="80.0" fill="#000000" transform="matrix(1.00, 0.00, -0.00, -1.00, 727.3, 618.0)">r</text><text xml:space="preserve" font-family="Helvetica-Light" font-size="80.0" fill="#000000" transform="matrix(1.00, 0.00, -0.00, -1.00, 754.0, 618.0)">a</text><text xml:space="preserve" font-family="Helvetica-Light" font-size="80.0" fill="#000000" transform="matrix(1.00, 0.00, -0.00, -1.00, 798.4, 618.0)">t</text><text xml:space="preserve" font-family="Helvetica-Light" font-size="80.0" fill="#000000" transform="matrix(1.00, 0.00, -0.00, -1.00, 820.7, 618.0)">o</text><text xml:space="preserve" font-family="Helvetica-Light" font-size="80.0" fill="#000000" transform="matrix(1.00, 0.00, -0.00, -1.00, 865.2, 618.0)">r</text><text xml:space="preserve" font-family="CourierNewPS-BoldMT" font-weight="bold" font-size="30.0" fill="#000000" transform="matrix(1.00, 0.00, -0.00, -1.00, 79.0, 494.0)">v</text><text xml:space="preserve" font-family="CourierNewPS-BoldMT" font-weight="bold" font-size="30.0" fill="#000000" transform="matrix(1.00, 0.00, -0.00, -1.00, 97.0, 494.0)">a</text><text xml:space="preserve" font-family="CourierNewPS-BoldMT" font-weight="bold" font-size="30.0" fill="#000000" transform="matrix(1.00, 0.00, -0.00, -1.00, 115.0, 494.0)">r</text><text xml:space="preserve" font-family="CourierNewPSMT" font-size="30.0" fill="#000000" transform="matrix(1.00, 0.00, -0.00, -1.00, 133.0, 494.0)"> </text><text xml:space="preserve" font-family="CourierNewPSMT" font-size="30.0" fill="#000000" transform="matrix(1.00, 0.00, -0.00, -1.00, 151.0, 494.0)">c</text><text xml:space="preserve" font-family="CourierNewPSMT" font-size="30.0" fill="#000000" transform="matrix(1.00, 0.00, -0.00, -1.00, 169.0, 494.0)">i</text><text xml:space="preserve" font-family="CourierNewPSMT" font-size="30.0" fill="#000000" transform="matrix(1.00, 0.00, -0.00, -1.00, 187.0, 494.0)">t</text><text xml:space="preserve" font-family="CourierNewPSMT" font-size="30.0" fill="#000000" transform="matrix(1.00, 0.00, -0.00, -1.00, 205.0, 494.0)">i</text><text xml:space="preserve" font-family="CourierNewPSMT" font-size="30.0" fill="#000000" transform="matrix(1.00, 0.00, -0.00, -1.00, 223.0, 494.0)">e</text><text xml:space="preserve" font-family="CourierNewPSMT" font-size="30.0" fill="#000000" transform="matrix(1.00, 0.00, -0.00, -1.00, 241.0, 494.0)">s</text><text xml:space="preserve" font-family="CourierNewPSMT" font-size="30.0" fill="#000000" transform="matrix(1.00, 0.00, -0.00, -1.00, 259.1, 494.0)"> </text><text xml:space="preserve" font-family="CourierNewPSMT" font-size="30.0" fill="#000000" transform="matrix(1.00, 0.00, -0.00, -1.00, 277.1, 494.0)">=</text><text xml:space="preserve" font-family="CourierNewPSMT" font-size="30.0" fill="#000000" transform="matrix(1.00, 0.00, -0.00, -1.00, 295.1, 494.0)"> </text><text xml:space="preserve" font-family="CourierNewPSMT" font-size="30.0" fill="#000000" transform="matrix(1.00, 0.00, -0.00, -1.00, 313.1, 494.0)">[</text><text xml:space="preserve" font-family="CourierNewPSMT" font-size="30.0" fill="#CC1C00" transform="matrix(1.00, 0.00, -0.00, -1.00, 331.0, 494.0)">"</text><text xml:space="preserve" font-family="CourierNewPSMT" font-size="30.0" fill="#CC1C00" transform="matrix(1.00, 0.00, -0.00, -1.00, 349.0, 494.0)">N</text><text xml:space="preserve" font-family="CourierNewPSMT" font-size="30.0" fill="#CC1C00" transform="matrix(1.00, 0.00, -0.00, -1.00, 367.1, 494.0)">e</text><text xml:space="preserve" font-family="CourierNewPSMT" font-size="30.0" fill="#CC1C00" transform="matrix(1.00, 0.00, -0.00, -1.00, 385.1, 494.0)">w</text><text xml:space="preserve" font-family="CourierNewPSMT" font-size="30.0" fill="#CC1C00" transform="matrix(1.00, 0.00, -0.00, -1.00, 403.1, 494.0)"> </text><text xml:space="preserve" font-family="CourierNewPSMT" font-size="30.0" fill="#CC1C00" transform="matrix(1.00, 0.00, -0.00, -1.00, 421.1, 494.0)">Y</text><text xml:space="preserve" font-family="CourierNewPSMT" font-size="30.0" fill="#CC1C00" transform="matrix(1.00, 0.00, -0.00, -1.00, 439.1, 494.0)">o</text><text xml:space="preserve" font-family="CourierNewPSMT" font-size="30.0" fill="#CC1C00" transform="matrix(1.00, 0.00, -0.00, -1.00, 457.1, 494.0)">r</text><text xml:space="preserve" font-family="CourierNewPSMT" font-size="30.0" fill="#CC1C00" transform="matrix(1.00, 0.00, -0.00, -1.00, 475.1, 494.0)">k</text><text xml:space="preserve" font-family="CourierNewPSMT" font-size="30.0" fill="#CC1C00" transform="matrix(1.00, 0.00, -0.00, -1.00, 493.1, 494.0)">"</text><text xml:space="preserve" font-family="CourierNewPSMT" font-size="30.0" fill="#000000" transform="matrix(1.00, 0.00, -0.00, -1.00, 511.1, 494.0)">,</text><text xml:space="preserve" font-family="CourierNewPSMT" font-size="30.0" fill="#000000" transform="matrix(1.00, 0.00, -0.00, -1.00, 529.1, 494.0)"> </text><text xml:space="preserve" font-family="CourierNewPSMT" font-size="30.0" fill="#CC1C00" transform="matrix(1.00, 0.00, -0.00, -1.00, 547.1, 494.0)">"</text><text xml:space="preserve" font-family="CourierNewPSMT" font-size="30.0" fill="#CC1C00" transform="matrix(1.00, 0.00, -0.00, -1.00, 565.1, 494.0)">S</text><text xml:space="preserve" font-family="CourierNewPSMT" font-size="30.0" fill="#CC1C00" transform="matrix(1.00, 0.00, -0.00, -1.00, 583.1, 494.0)">a</text><text xml:space="preserve" font-family="CourierNewPSMT" font-size="30.0" fill="#CC1C00" transform="matrix(1.00, 0.00, -0.00, -1.00, 601.1, 494.0)">n</text><text xml:space="preserve" font-family="CourierNewPSMT" font-size="30.0" fill="#CC1C00" transform="matrix(1.00, 0.00, -0.00, -1.00, 619.1, 494.0)"> </text><text xml:space="preserve" font-family="CourierNewPSMT" font-size="30.0" fill="#CC1C00" transform="matrix(1.00, 0.00, -0.00, -1.00, 637.1, 494.0)">F</text><text xml:space="preserve" font-family="CourierNewPSMT" font-size="30.0" fill="#CC1C00" transform="matrix(1.00, 0.00, -0.00, -1.00, 655.1, 494.0)">r</text><text xml:space="preserve" font-family="CourierNewPSMT" font-size="30.0" fill="#CC1C00" transform="matrix(1.00, 0.00, -0.00, -1.00, 673.1, 494.0)">a</text><text xml:space="preserve" font-family="CourierNewPSMT" font-size="30.0" fill="#CC1C00" transform="matrix(1.00, 0.00, -0.00, -1.00, 691.1, 494.0)">n</text><text xml:space="preserve" font-family="CourierNewPSMT" font-size="30.0" fill="#CC1C00" transform="matrix(1.00, 0.00, -0.00, -1.00, 709.1, 494.0)">c</text><text xml:space="preserve" font-family="CourierNewPSMT" font-size="30.0" fill="#CC1C00" transform="matrix(1.00, 0.00, -0.00, -1.00, 727.1, 494.0)">i</text><text xml:space="preserve" font-family="CourierNewPSMT" font-size="30.0" fill="#CC1C00" transform="matrix(1.00, 0.00, -0.00, -1.00, 745.1, 494.0)">s</text><text xml:space="preserve" font-family="CourierNewPSMT" font-size="30.0" fill="#CC1C00" transform="matrix(1.00, 0.00, -0.00, -1.00, 763.1, 494.0)">c</text><text xml:space="preserve" font-family="CourierNewPSMT" font-size="30.0" fill="#CC1C00" transform="matrix(1.00, 0.00, -0.00, -1.00, 781.2, 494.0)">o</text><text xml:space="preserve" font-family="CourierNewPSMT" font-size="30.0" fill="#CC1C00" transform="matrix(1.00, 0.00, -0.00, -1.00, 799.2, 494.0)">”</text><text xml:space="preserve" font-family="CourierNewPSMT" font-size="30.0" fill="#000000" transform="matrix(1.00, 0.00, -0.00, -1.00, 817.1, 494.0)">]</text><text xml:space="preserve" font-family="CourierNewPSMT" font-size="30.0" fill="#000000" transform="matrix(1.00, 0.00, -0.00, -1.00, 835.1, 494.0)"> </text><text xml:space="preserve" font-family="CourierNewPSMT" font-size="30.0" fill="#000000" transform="matrix(1.00, 0.00, -0.00, -1.00, 79.0, 426.0)">[</text><text xml:space="preserve" font-family="CourierNewPSMT" font-size="30.0" fill="#CC1C00" transform="matrix(1.00, 0.00, -0.00, -1.00, 97.0, 426.0)">"</text><text xml:space="preserve" font-family="CourierNewPSMT" font-size="30.0" fill="#CC1C00" transform="matrix(1.00, 0.00, -0.00, -1.00, 115.0, 426.0)">P</text><text xml:space="preserve" font-family="CourierNewPSMT" font-size="30.0" fill="#CC1C00" transform="matrix(1.00, 0.00, -0.00, -1.00, 133.0, 426.0)">h</text><text xml:space="preserve" font-family="CourierNewPSMT" font-size="30.0" fill="#CC1C00" transform="matrix(1.00, 0.00, -0.00, -1.00, 151.0, 426.0)">i</text><text xml:space="preserve" font-family="CourierNewPSMT" font-size="30.0" fill="#CC1C00" transform="matrix(1.00, 0.00, -0.00, -1.00, 169.0, 426.0)">l</text><text xml:space="preserve" font-family="CourierNewPSMT" font-size="30.0" fill="#CC1C00" transform="matrix(1.00, 0.00, -0.00, -1.00, 187.0, 426.0)">a</text><text xml:space="preserve" font-family="CourierNewPSMT" font-size="30.0" fill="#CC1C00" transform="matrix(1.00, 0.00, -0.00, -1.00, 205.0, 426.0)">d</text><text xml:space="preserve" font-family="CourierNewPSMT" font-size="30.0" fill="#CC1C00" transform="matrix(1.00, 0.00, -0.00, -1.00, 223.0, 426.0)">e</text><text xml:space="preserve" font-family="CourierNewPSMT" font-size="30.0" fill="#CC1C00" transform="matrix(1.00, 0.00, -0.00, -1.00, 241.1, 426.0)">l</text><text xml:space="preserve" font-family="CourierNewPSMT" font-size="30.0" fill="#CC1C00" transform="matrix(1.00, 0.00, -0.00, -1.00, 259.1, 426.0)">p</text><text xml:space="preserve" font-family="CourierNewPSMT" font-size="30.0" fill="#CC1C00" transform="matrix(1.00, 0.00, -0.00, -1.00, 277.1, 426.0)">h</text><text xml:space="preserve" font-family="CourierNewPSMT" font-size="30.0" fill="#CC1C00" transform="matrix(1.00, 0.00, -0.00, -1.00, 295.1, 426.0)">i</text><text xml:space="preserve" font-family="CourierNewPSMT" font-size="30.0" fill="#CC1C00" transform="matrix(1.00, 0.00, -0.00, -1.00, 313.1, 426.0)">a</text><text xml:space="preserve" font-family="CourierNewPSMT" font-size="30.0" fill="#CC1C00" transform="matrix(1.00, 0.00, -0.00, -1.00, 331.1, 426.0)">"</text><text xml:space="preserve" font-family="CourierNewPSMT" font-size="30.0" fill="#000000" transform="matrix(1.00, 0.00, -0.00, -1.00, 349.0, 426.0)">,</text><text xml:space="preserve" font-family="CourierNewPSMT" font-size="30.0" fill="#000000" transform="matrix(1.00, 0.00, -0.00, -1.00, 367.0, 426.0)"> </text><text xml:space="preserve" font-family="CourierNewPSMT" font-size="30.0" fill="#000000" transform="matrix(1.00, 0.00, -0.00, -1.00, 385.1, 426.0)">.</text><text xml:space="preserve" font-family="CourierNewPSMT" font-size="30.0" fill="#000000" transform="matrix(1.00, 0.00, -0.00, -1.00, 403.1, 426.0)">.</text><text xml:space="preserve" font-family="CourierNewPSMT" font-size="30.0" fill="#000000" transform="matrix(1.00, 0.00, -0.00, -1.00, 421.1, 426.0)">.</text><text xml:space="preserve" font-family="CourierNewPSMT" font-size="30.0" fill="#000000" transform="matrix(1.00, 0.00, -0.00, -1.00, 439.1, 426.0)">c</text><text xml:space="preserve" font-family="CourierNewPSMT" font-size="30.0" fill="#000000" transform="matrix(1.00, 0.00, -0.00, -1.00, 457.1, 426.0)">i</text><text xml:space="preserve" font-family="CourierNewPSMT" font-size="30.0" fill="#000000" transform="matrix(1.00, 0.00, -0.00, -1.00, 475.1, 426.0)">t</text><text xml:space="preserve" font-family="CourierNewPSMT" font-size="30.0" fill="#000000" transform="matrix(1.00, 0.00, -0.00, -1.00, 493.1, 426.0)">i</text><text xml:space="preserve" font-family="CourierNewPSMT" font-size="30.0" fill="#000000" transform="matrix(1.00, 0.00, -0.00, -1.00, 511.1, 426.0)">e</text><text xml:space="preserve" font-family="CourierNewPSMT" font-size="30.0" fill="#000000" transform="matrix(1.00, 0.00, -0.00, -1.00, 529.1, 426.0)">s</text><text xml:space="preserve" font-family="CourierNewPSMT" font-size="30.0" fill="#000000" transform="matrix(1.00, 0.00, -0.00, -1.00, 547.1, 426.0)">]</text><text xml:space="preserve" font-family="CourierNewPSMT" font-size="30.0" fill="#000000" transform="matrix(1.00, 0.00, -0.00, -1.00, 565.1, 426.0)"> </text><text xml:space="preserve" font-family="CourierNewPSMT" font-size="30.0" fill="#000000" transform="matrix(1.00, 0.00, -0.00, -1.00, 79.0, 358.0)">c</text><text xml:space="preserve" font-family="CourierNewPSMT" font-size="30.0" fill="#000000" transform="matrix(1.00, 0.00, -0.00, -1.00, 97.0, 358.0)">o</text><text xml:space="preserve" font-family="CourierNewPSMT" font-size="30.0" fill="#000000" transform="matrix(1.00, 0.00, -0.00, -1.00, 115.0, 358.0)">n</text><text xml:space="preserve" font-family="CourierNewPSMT" font-size="30.0" fill="#000000" transform="matrix(1.00, 0.00, -0.00, -1.00, 133.0, 358.0)">s</text><text xml:space="preserve" font-family="CourierNewPSMT" font-size="30.0" fill="#000000" transform="matrix(1.00, 0.00, -0.00, -1.00, 151.0, 358.0)">o</text><text xml:space="preserve" font-family="CourierNewPSMT" font-size="30.0" fill="#000000" transform="matrix(1.00, 0.00, -0.00, -1.00, 169.0, 358.0)">l</text><text xml:space="preserve" font-family="CourierNewPSMT" font-size="30.0" fill="#000000" transform="matrix(1.00, 0.00, -0.00, -1.00, 187.0, 358.0)">e</text><text xml:space="preserve" font-family="CourierNewPSMT" font-size="30.0" fill="#000000" transform="matrix(1.00, 0.00, -0.00, -1.00, 205.0, 358.0)">.</text><text xml:space="preserve" font-family="CourierNewPSMT" font-size="30.0" fill="#021993" transform="matrix(1.00, 0.00, -0.00, -1.00, 223.0, 358.0)">l</text><text xml:space="preserve" font-family="CourierNewPSMT" font-size="30.0" fill="#021993" transform="matrix(1.00, 0.00, -0.00, -1.00, 241.0, 358.0)">o</text><text xml:space="preserve" font-family="CourierNewPSMT" font-size="30.0" fill="#021993" transform="matrix(1.00, 0.00, -0.00, -1.00, 259.0, 358.0)">g</text><text xml:space="preserve" font-family="CourierNewPSMT" font-size="30.0" fill="#000000" transform="matrix(1.00, 0.00, -0.00, -1.00, 277.0, 358.0)">(</text><text xml:space="preserve" font-family="CourierNewPSMT" font-size="30.0" fill="#000000" transform="matrix(1.00, 0.00, -0.00, -1.00, 295.0, 358.0)">c</text><text xml:space="preserve" font-family="CourierNewPSMT" font-size="30.0" fill="#000000" transform="matrix(1.00, 0.00, -0.00, -1.00, 313.0, 358.0)">i</text><text xml:space="preserve" font-family="CourierNewPSMT" font-size="30.0" fill="#000000" transform="matrix(1.00, 0.00, -0.00, -1.00, 331.0, 358.0)">t</text><text xml:space="preserve" font-family="CourierNewPSMT" font-size="30.0" fill="#000000" transform="matrix(1.00, 0.00, -0.00, -1.00, 349.1, 358.0)">i</text><text xml:space="preserve" font-family="CourierNewPSMT" font-size="30.0" fill="#000000" transform="matrix(1.00, 0.00, -0.00, -1.00, 367.1, 358.0)">e</text><text xml:space="preserve" font-family="CourierNewPSMT" font-size="30.0" fill="#000000" transform="matrix(1.00, 0.00, -0.00, -1.00, 385.1, 358.0)">s</text><text xml:space="preserve" font-family="CourierNewPSMT" font-size="30.0" fill="#000000" transform="matrix(1.00, 0.00, -0.00, -1.00, 403.1, 358.0)">)</text><text xml:space="preserve" font-family="CourierNewPSMT" font-size="30.0" fill="#000000" transform="matrix(1.00, 0.00, -0.00, -1.00, 421.1, 358.0)"> </text><text xml:space="preserve" font-family="CourierNewPSMT" font-size="30.0" fill="#000000" transform="matrix(1.00, 0.00, -0.00, -1.00, 79.0, 324.0)">=</text><text xml:space="preserve" font-family="CourierNewPSMT" font-size="30.0" fill="#000000" transform="matrix(1.00, 0.00, -0.00, -1.00, 97.0, 324.0)">&gt;</text><text xml:space="preserve" font-family="CourierNewPSMT" font-size="30.0" fill="#000000" transform="matrix(1.00, 0.00, -0.00, -1.00, 115.0, 324.0)"> </text><text xml:space="preserve" font-family="CourierNewPSMT" font-size="30.0" fill="#000000" transform="matrix(1.00, 0.00, -0.00, -1.00, 133.0, 324.0)">[</text><text xml:space="preserve" font-family="CourierNewPSMT" font-size="30.0" fill="#CC1C00" transform="matrix(1.00, 0.00, -0.00, -1.00, 151.0, 324.0)">"</text><text xml:space="preserve" font-family="CourierNewPSMT" font-size="30.0" fill="#CC1C00" transform="matrix(1.00, 0.00, -0.00, -1.00, 169.0, 324.0)">N</text><text xml:space="preserve" font-family="CourierNewPSMT" font-size="30.0" fill="#CC1C00" transform="matrix(1.00, 0.00, -0.00, -1.00, 187.0, 324.0)">e</text><text xml:space="preserve" font-family="CourierNewPSMT" font-size="30.0" fill="#CC1C00" transform="matrix(1.00, 0.00, -0.00, -1.00, 205.0, 324.0)">w</text><text xml:space="preserve" font-family="CourierNewPSMT" font-size="30.0" fill="#CC1C00" transform="matrix(1.00, 0.00, -0.00, -1.00, 223.0, 324.0)"> </text><text xml:space="preserve" font-family="CourierNewPSMT" font-size="30.0" fill="#CC1C00" transform="matrix(1.00, 0.00, -0.00, -1.00, 241.0, 324.0)">Y</text><text xml:space="preserve" font-family="CourierNewPSMT" font-size="30.0" fill="#CC1C00" transform="matrix(1.00, 0.00, -0.00, -1.00, 259.0, 324.0)">o</text><text xml:space="preserve" font-family="CourierNewPSMT" font-size="30.0" fill="#CC1C00" transform="matrix(1.00, 0.00, -0.00, -1.00, 277.1, 324.0)">r</text><text xml:space="preserve" font-family="CourierNewPSMT" font-size="30.0" fill="#CC1C00" transform="matrix(1.00, 0.00, -0.00, -1.00, 295.1, 324.0)">k</text><text xml:space="preserve" font-family="CourierNewPSMT" font-size="30.0" fill="#CC1C00" transform="matrix(1.00, 0.00, -0.00, -1.00, 313.1, 324.0)">,</text><text xml:space="preserve" font-family="CourierNewPSMT" font-size="30.0" fill="#CC1C00" transform="matrix(1.00, 0.00, -0.00, -1.00, 331.1, 324.0)"> </text><text xml:space="preserve" font-family="CourierNewPSMT" font-size="30.0" fill="#CC1C00" transform="matrix(1.00, 0.00, -0.00, -1.00, 349.1, 324.0)">S</text><text xml:space="preserve" font-family="CourierNewPSMT" font-size="30.0" fill="#CC1C00" transform="matrix(1.00, 0.00, -0.00, -1.00, 367.1, 324.0)">a</text><text xml:space="preserve" font-family="CourierNewPSMT" font-size="30.0" fill="#CC1C00" transform="matrix(1.00, 0.00, -0.00, -1.00, 385.1, 324.0)">n</text><text xml:space="preserve" font-family="CourierNewPSMT" font-size="30.0" fill="#CC1C00" transform="matrix(1.00, 0.00, -0.00, -1.00, 403.1, 324.0)"> </text><text xml:space="preserve" font-family="CourierNewPSMT" font-size="30.0" fill="#CC1C00" transform="matrix(1.00, 0.00, -0.00, -1.00, 421.1, 324.0)">F</text><text xml:space="preserve" font-family="CourierNewPSMT" font-size="30.0" fill="#CC1C00" transform="matrix(1.00, 0.00, -0.00, -1.00, 439.1, 324.0)">r</text><text xml:space="preserve" font-family="CourierNewPSMT" font-size="30.0" fill="#CC1C00" transform="matrix(1.00, 0.00, -0.00, -1.00, 457.1, 324.0)">a</text><text xml:space="preserve" font-family="CourierNewPSMT" font-size="30.0" fill="#CC1C00" transform="matrix(1.00, 0.00, -0.00, -1.00, 475.1, 324.0)">n</text><text xml:space="preserve" font-family="CourierNewPSMT" font-size="30.0" fill="#CC1C00" transform="matrix(1.00, 0.00, -0.00, -1.00, 493.1, 324.0)">c</text><text xml:space="preserve" font-family="CourierNewPSMT" font-size="30.0" fill="#CC1C00" transform="matrix(1.00, 0.00, -0.00, -1.00, 511.1, 324.0)">i</text><text xml:space="preserve" font-family="CourierNewPSMT" font-size="30.0" fill="#CC1C00" transform="matrix(1.00, 0.00, -0.00, -1.00, 529.1, 324.0)">s</text><text xml:space="preserve" font-family="CourierNewPSMT" font-size="30.0" fill="#CC1C00" transform="matrix(1.00, 0.00, -0.00, -1.00, 547.1, 324.0)">c</text><text xml:space="preserve" font-family="CourierNewPSMT" font-size="30.0" fill="#CC1C00" transform="matrix(1.00, 0.00, -0.00, -1.00, 565.1, 324.0)">o</text><text xml:space="preserve" font-family="CourierNewPSMT" font-size="30.0" fill="#CC1C00" transform="matrix(1.00, 0.00, -0.00, -1.00, 583.2, 324.0)">”</text><text xml:space="preserve" font-family="CourierNewPSMT" font-size="30.0" fill="#000000" transform="matrix(1.00, 0.00, -0.00, -1.00, 601.1, 324.0)">]</text><text xml:space="preserve" font-family="CourierNewPSMT" font-size="30.0" fill="#000000" transform="matrix(1.00, 0.00, -0.00, -1.00, 619.1, 324.0)"> </text><text xml:space="preserve" font-family="CourierNewPS-ItalicMT" font-style="italic" font-size="30.0" fill="#959395" transform="matrix(1.00, 0.00, -0.00, -1.00, 79.0, 256.0)">/</text><text xml:space="preserve" font-family="CourierNewPS-ItalicMT" font-style="italic" font-size="30.0" fill="#959395" transform="matrix(1.00, 0.00, -0.00, -1.00, 97.0, 256.0)">/</text><text xml:space="preserve" font-family="CourierNewPS-ItalicMT" font-style="italic" font-size="30.0" fill="#959395" transform="matrix(1.00, 0.00, -0.00, -1.00, 115.0, 256.0)"> </text><text xml:space="preserve" font-family="CourierNewPS-ItalicMT" font-style="italic" font-size="30.0" fill="#959395" transform="matrix(1.00, 0.00, -0.00, -1.00, 133.0, 256.0)">w</text><text xml:space="preserve" font-family="CourierNewPS-ItalicMT" font-style="italic" font-size="30.0" fill="#959395" transform="matrix(1.00, 0.00, -0.00, -1.00, 151.0, 256.0)">e</text><text xml:space="preserve" font-family="CourierNewPS-ItalicMT" font-style="italic" font-size="30.0" fill="#959395" transform="matrix(1.00, 0.00, -0.00, -1.00, 169.0, 256.0)"> </text><text xml:space="preserve" font-family="CourierNewPS-ItalicMT" font-style="italic" font-size="30.0" fill="#959395" transform="matrix(1.00, 0.00, -0.00, -1.00, 187.0, 256.0)">c</text><text xml:space="preserve" font-family="CourierNewPS-ItalicMT" font-style="italic" font-size="30.0" fill="#959395" transform="matrix(1.00, 0.00, -0.00, -1.00, 205.0, 256.0)">a</text><text xml:space="preserve" font-family="CourierNewPS-ItalicMT" font-style="italic" font-size="30.0" fill="#959395" transform="matrix(1.00, 0.00, -0.00, -1.00, 223.0, 256.0)">n</text><text xml:space="preserve" font-family="CourierNewPS-ItalicMT" font-style="italic" font-size="30.0" fill="#959395" transform="matrix(1.00, 0.00, -0.00, -1.00, 241.1, 256.0)"> </text><text xml:space="preserve" font-family="CourierNewPS-ItalicMT" font-style="italic" font-size="30.0" fill="#959395" transform="matrix(1.00, 0.00, -0.00, -1.00, 259.1, 256.0)">a</text><text xml:space="preserve" font-family="CourierNewPS-ItalicMT" font-style="italic" font-size="30.0" fill="#959395" transform="matrix(1.00, 0.00, -0.00, -1.00, 277.1, 256.0)">s</text><text xml:space="preserve" font-family="CourierNewPS-ItalicMT" font-style="italic" font-size="30.0" fill="#959395" transform="matrix(1.00, 0.00, -0.00, -1.00, 295.1, 256.0)">s</text><text xml:space="preserve" font-family="CourierNewPS-ItalicMT" font-style="italic" font-size="30.0" fill="#959395" transform="matrix(1.00, 0.00, -0.00, -1.00, 313.1, 256.0)">i</text><text xml:space="preserve" font-family="CourierNewPS-ItalicMT" font-style="italic" font-size="30.0" fill="#959395" transform="matrix(1.00, 0.00, -0.00, -1.00, 331.1, 256.0)">g</text><text xml:space="preserve" font-family="CourierNewPS-ItalicMT" font-style="italic" font-size="30.0" fill="#959395" transform="matrix(1.00, 0.00, -0.00, -1.00, 349.1, 256.0)">n</text><text xml:space="preserve" font-family="CourierNewPS-ItalicMT" font-style="italic" font-size="30.0" fill="#959395" transform="matrix(1.00, 0.00, -0.00, -1.00, 367.1, 256.0)"> </text><text xml:space="preserve" font-family="CourierNewPS-ItalicMT" font-style="italic" font-size="30.0" fill="#959395" transform="matrix(1.00, 0.00, -0.00, -1.00, 385.1, 256.0)">i</text><text xml:space="preserve" font-family="CourierNewPS-ItalicMT" font-style="italic" font-size="30.0" fill="#959395" transform="matrix(1.00, 0.00, -0.00, -1.00, 403.1, 256.0)">t</text><text xml:space="preserve" font-family="CourierNewPS-ItalicMT" font-style="italic" font-size="30.0" fill="#959395" transform="matrix(1.00, 0.00, -0.00, -1.00, 421.1, 256.0)"> </text><text xml:space="preserve" font-family="CourierNewPS-ItalicMT" font-style="italic" font-size="30.0" fill="#959395" transform="matrix(1.00, 0.00, -0.00, -1.00, 439.1, 256.0)">t</text><text xml:space="preserve" font-family="CourierNewPS-ItalicMT" font-style="italic" font-size="30.0" fill="#959395" transform="matrix(1.00, 0.00, -0.00, -1.00, 457.1, 256.0)">o</text><text xml:space="preserve" font-family="CourierNewPS-ItalicMT" font-style="italic" font-size="30.0" fill="#959395" transform="matrix(1.00, 0.00, -0.00, -1.00, 475.1, 256.0)"> </text><text xml:space="preserve" font-family="CourierNewPS-ItalicMT" font-style="italic" font-size="30.0" fill="#959395" transform="matrix(1.00, 0.00, -0.00, -1.00, 493.1, 256.0)">t</text><text xml:space="preserve" font-family="CourierNewPS-ItalicMT" font-style="italic" font-size="30.0" fill="#959395" transform="matrix(1.00, 0.00, -0.00, -1.00, 511.1, 256.0)">h</text><text xml:space="preserve" font-family="CourierNewPS-ItalicMT" font-style="italic" font-size="30.0" fill="#959395" transform="matrix(1.00, 0.00, -0.00, -1.00, 529.1, 256.0)">e</text><text xml:space="preserve" font-family="CourierNewPS-ItalicMT" font-style="italic" font-size="30.0" fill="#959395" transform="matrix(1.00, 0.00, -0.00, -1.00, 547.2, 256.0)"> </text><text xml:space="preserve" font-family="CourierNewPS-ItalicMT" font-style="italic" font-size="30.0" fill="#959395" transform="matrix(1.00, 0.00, -0.00, -1.00, 565.2, 256.0)">e</text><text xml:space="preserve" font-family="CourierNewPS-ItalicMT" font-style="italic" font-size="30.0" fill="#959395" transform="matrix(1.00, 0.00, -0.00, -1.00, 583.2, 256.0)">x</text><text xml:space="preserve" font-family="CourierNewPS-ItalicMT" font-style="italic" font-size="30.0" fill="#959395" transform="matrix(1.00, 0.00, -0.00, -1.00, 601.2, 256.0)">i</text><text xml:space="preserve" font-family="CourierNewPS-ItalicMT" font-style="italic" font-size="30.0" fill="#959395" transform="matrix(1.00, 0.00, -0.00, -1.00, 619.2, 256.0)">s</text><text xml:space="preserve" font-family="CourierNewPS-ItalicMT" font-style="italic" font-size="30.0" fill="#959395" transform="matrix(1.00, 0.00, -0.00, -1.00, 637.2, 256.0)">t</text><text xml:space="preserve" font-family="CourierNewPS-ItalicMT" font-style="italic" font-size="30.0" fill="#959395" transform="matrix(1.00, 0.00, -0.00, -1.00, 655.2, 256.0)">i</text><text xml:space="preserve" font-family="CourierNewPS-ItalicMT" font-style="italic" font-size="30.0" fill="#959395" transform="matrix(1.00, 0.00, -0.00, -1.00, 673.2, 256.0)">n</text><text xml:space="preserve" font-family="CourierNewPS-ItalicMT" font-style="italic" font-size="30.0" fill="#959395" transform="matrix(1.00, 0.00, -0.00, -1.00, 691.2, 256.0)">g</text><text xml:space="preserve" font-family="CourierNewPS-ItalicMT" font-style="italic" font-size="30.0" fill="#959395" transform="matrix(1.00, 0.00, -0.00, -1.00, 709.2, 256.0)"> </text><text xml:space="preserve" font-family="CourierNewPS-ItalicMT" font-style="italic" font-size="30.0" fill="#959395" transform="matrix(1.00, 0.00, -0.00, -1.00, 727.2, 256.0)">`</text><text xml:space="preserve" font-family="CourierNewPS-ItalicMT" font-style="italic" font-size="30.0" fill="#959395" transform="matrix(1.00, 0.00, -0.00, -1.00, 745.2, 256.0)">c</text><text xml:space="preserve" font-family="CourierNewPS-ItalicMT" font-style="italic" font-size="30.0" fill="#959395" transform="matrix(1.00, 0.00, -0.00, -1.00, 763.2, 256.0)">i</text><text xml:space="preserve" font-family="CourierNewPS-ItalicMT" font-style="italic" font-size="30.0" fill="#959395" transform="matrix(1.00, 0.00, -0.00, -1.00, 781.2, 256.0)">t</text><text xml:space="preserve" font-family="CourierNewPS-ItalicMT" font-style="italic" font-size="30.0" fill="#959395" transform="matrix(1.00, 0.00, -0.00, -1.00, 799.2, 256.0)">i</text><text xml:space="preserve" font-family="CourierNewPS-ItalicMT" font-style="italic" font-size="30.0" fill="#959395" transform="matrix(1.00, 0.00, -0.00, -1.00, 817.2, 256.0)">e</text><text xml:space="preserve" font-family="CourierNewPS-ItalicMT" font-style="italic" font-size="30.0" fill="#959395" transform="matrix(1.00, 0.00, -0.00, -1.00, 835.2, 256.0)">s</text><text xml:space="preserve" font-family="CourierNewPS-ItalicMT" font-style="italic" font-size="30.0" fill="#959395" transform="matrix(1.00, 0.00, -0.00, -1.00, 853.3, 256.0)">`</text><text xml:space="preserve" font-family="CourierNewPS-ItalicMT" font-style="italic" font-size="30.0" fill="#959395" transform="matrix(1.00, 0.00, -0.00, -1.00, 871.3, 256.0)"> </text><text xml:space="preserve" font-family="CourierNewPS-ItalicMT" font-style="italic" font-size="30.0" fill="#959395" transform="matrix(1.00, 0.00, -0.00, -1.00, 79.0, 222.0)">v</text><text xml:space="preserve" font-family="CourierNewPS-ItalicMT" font-style="italic" font-size="30.0" fill="#959395" transform="matrix(1.00, 0.00, -0.00, -1.00, 97.0, 222.0)">a</text><text xml:space="preserve" font-family="CourierNewPS-ItalicMT" font-style="italic" font-size="30.0" fill="#959395" transform="matrix(1.00, 0.00, -0.00, -1.00, 115.0, 222.0)">r</text><text xml:space="preserve" font-family="CourierNewPS-ItalicMT" font-style="italic" font-size="30.0" fill="#959395" transform="matrix(1.00, 0.00, -0.00, -1.00, 133.0, 222.0)">i</text><text xml:space="preserve" font-family="CourierNewPS-ItalicMT" font-style="italic" font-size="30.0" fill="#959395" transform="matrix(1.00, 0.00, -0.00, -1.00, 151.0, 222.0)">a</text><text xml:space="preserve" font-family="CourierNewPS-ItalicMT" font-style="italic" font-size="30.0" fill="#959395" transform="matrix(1.00, 0.00, -0.00, -1.00, 169.0, 222.0)">b</text><text xml:space="preserve" font-family="CourierNewPS-ItalicMT" font-style="italic" font-size="30.0" fill="#959395" transform="matrix(1.00, 0.00, -0.00, -1.00, 187.0, 222.0)">l</text><text xml:space="preserve" font-family="CourierNewPS-ItalicMT" font-style="italic" font-size="30.0" fill="#959395" transform="matrix(1.00, 0.00, -0.00, -1.00, 205.0, 222.0)">e</text><text xml:space="preserve" font-family="CourierNewPSMT" font-size="30.0" fill="#000000" transform="matrix(1.00, 0.00, -0.00, -1.00, 223.0, 222.0)"> </text><text xml:space="preserve" font-family="CourierNewPSMT" font-size="30.0" fill="#000000" transform="matrix(1.00, 0.00, -0.00, -1.00, 79.0, 188.0)">c</text><text xml:space="preserve" font-family="CourierNewPSMT" font-size="30.0" fill="#000000" transform="matrix(1.00, 0.00, -0.00, -1.00, 97.0, 188.0)">i</text><text xml:space="preserve" font-family="CourierNewPSMT" font-size="30.0" fill="#000000" transform="matrix(1.00, 0.00, -0.00, -1.00, 115.0, 188.0)">t</text><text xml:space="preserve" font-family="CourierNewPSMT" font-size="30.0" fill="#000000" transform="matrix(1.00, 0.00, -0.00, -1.00, 133.0, 188.0)">i</text><text xml:space="preserve" font-family="CourierNewPSMT" font-size="30.0" fill="#000000" transform="matrix(1.00, 0.00, -0.00, -1.00, 151.0, 188.0)">e</text><text xml:space="preserve" font-family="CourierNewPSMT" font-size="30.0" fill="#000000" transform="matrix(1.00, 0.00, -0.00, -1.00, 169.0, 188.0)">s</text><text xml:space="preserve" font-family="CourierNewPSMT" font-size="30.0" fill="#000000" transform="matrix(1.00, 0.00, -0.00, -1.00, 187.0, 188.0)"> </text><text xml:space="preserve" font-family="CourierNewPSMT" font-size="30.0" fill="#000000" transform="matrix(1.00, 0.00, -0.00, -1.00, 205.0, 188.0)">=</text><text xml:space="preserve" font-family="CourierNewPSMT" font-size="30.0" fill="#000000" transform="matrix(1.00, 0.00, -0.00, -1.00, 223.0, 188.0)"> </text><text xml:space="preserve" font-family="CourierNewPSMT" font-size="30.0" fill="#000000" transform="matrix(1.00, 0.00, -0.00, -1.00, 241.1, 188.0)">[</text><text xml:space="preserve" font-family="CourierNewPSMT" font-size="30.0" fill="#CC1C00" transform="matrix(1.00, 0.00, -0.00, -1.00, 259.0, 188.0)">"</text><text xml:space="preserve" font-family="CourierNewPSMT" font-size="30.0" fill="#CC1C00" transform="matrix(1.00, 0.00, -0.00, -1.00, 277.0, 188.0)">P</text><text xml:space="preserve" font-family="CourierNewPSMT" font-size="30.0" fill="#CC1C00" transform="matrix(1.00, 0.00, -0.00, -1.00, 295.0, 188.0)">h</text><text xml:space="preserve" font-family="CourierNewPSMT" font-size="30.0" fill="#CC1C00" transform="matrix(1.00, 0.00, -0.00, -1.00, 313.0, 188.0)">i</text><text xml:space="preserve" font-family="CourierNewPSMT" font-size="30.0" fill="#CC1C00" transform="matrix(1.00, 0.00, -0.00, -1.00, 331.1, 188.0)">l</text><text xml:space="preserve" font-family="CourierNewPSMT" font-size="30.0" fill="#CC1C00" transform="matrix(1.00, 0.00, -0.00, -1.00, 349.1, 188.0)">a</text><text xml:space="preserve" font-family="CourierNewPSMT" font-size="30.0" fill="#CC1C00" transform="matrix(1.00, 0.00, -0.00, -1.00, 367.1, 188.0)">d</text><text xml:space="preserve" font-family="CourierNewPSMT" font-size="30.0" fill="#CC1C00" transform="matrix(1.00, 0.00, -0.00, -1.00, 385.1, 188.0)">e</text><text xml:space="preserve" font-family="CourierNewPSMT" font-size="30.0" fill="#CC1C00" transform="matrix(1.00, 0.00, -0.00, -1.00, 403.1, 188.0)">l</text><text xml:space="preserve" font-family="CourierNewPSMT" font-size="30.0" fill="#CC1C00" transform="matrix(1.00, 0.00, -0.00, -1.00, 421.1, 188.0)">p</text><text xml:space="preserve" font-family="CourierNewPSMT" font-size="30.0" fill="#CC1C00" transform="matrix(1.00, 0.00, -0.00, -1.00, 439.1, 188.0)">h</text><text xml:space="preserve" font-family="CourierNewPSMT" font-size="30.0" fill="#CC1C00" transform="matrix(1.00, 0.00, -0.00, -1.00, 457.1, 188.0)">i</text><text xml:space="preserve" font-family="CourierNewPSMT" font-size="30.0" fill="#CC1C00" transform="matrix(1.00, 0.00, -0.00, -1.00, 475.1, 188.0)">a</text><text xml:space="preserve" font-family="CourierNewPSMT" font-size="30.0" fill="#CC1C00" transform="matrix(1.00, 0.00, -0.00, -1.00, 493.1, 188.0)">"</text><text xml:space="preserve" font-family="CourierNewPSMT" font-size="30.0" fill="#000000" transform="matrix(1.00, 0.00, -0.00, -1.00, 511.1, 188.0)">,</text><text xml:space="preserve" font-family="CourierNewPSMT" font-size="30.0" fill="#000000" transform="matrix(1.00, 0.00, -0.00, -1.00, 529.1, 188.0)"> </text><text xml:space="preserve" font-family="CourierNewPSMT" font-size="30.0" fill="#000000" transform="matrix(1.00, 0.00, -0.00, -1.00, 547.1, 188.0)">.</text><text xml:space="preserve" font-family="CourierNewPSMT" font-size="30.0" fill="#000000" transform="matrix(1.00, 0.00, -0.00, -1.00, 565.1, 188.0)">.</text><text xml:space="preserve" font-family="CourierNewPSMT" font-size="30.0" fill="#000000" transform="matrix(1.00, 0.00, -0.00, -1.00, 583.1, 188.0)">.</text><text xml:space="preserve" font-family="CourierNewPSMT" font-size="30.0" fill="#000000" transform="matrix(1.00, 0.00, -0.00, -1.00, 601.1, 188.0)">c</text><text xml:space="preserve" font-family="CourierNewPSMT" font-size="30.0" fill="#000000" transform="matrix(1.00, 0.00, -0.00, -1.00, 619.1, 188.0)">i</text><text xml:space="preserve" font-family="CourierNewPSMT" font-size="30.0" fill="#000000" transform="matrix(1.00, 0.00, -0.00, -1.00, 637.1, 188.0)">t</text><text xml:space="preserve" font-family="CourierNewPSMT" font-size="30.0" fill="#000000" transform="matrix(1.00, 0.00, -0.00, -1.00, 655.1, 188.0)">i</text><text xml:space="preserve" font-family="CourierNewPSMT" font-size="30.0" fill="#000000" transform="matrix(1.00, 0.00, -0.00, -1.00, 673.1, 188.0)">e</text><text xml:space="preserve" font-family="CourierNewPSMT" font-size="30.0" fill="#000000" transform="matrix(1.00, 0.00, -0.00, -1.00, 691.1, 188.0)">s</text><text xml:space="preserve" font-family="CourierNewPSMT" font-size="30.0" fill="#000000" transform="matrix(1.00, 0.00, -0.00, -1.00, 709.1, 188.0)">]</text><text xml:space="preserve" font-family="CourierNewPSMT" font-size="30.0" fill="#000000" transform="matrix(1.00, 0.00, -0.00, -1.00, 727.1, 188.0)"> </text><text xml:space="preserve" font-family="CourierNewPSMT" font-size="30.0" fill="#000000" transform="matrix(1.00, 0.00, -0.00, -1.00, 79.0, 120.0)">c</text><text xml:space="preserve" font-family="CourierNewPSMT" font-size="30.0" fill="#000000" transform="matrix(1.00, 0.00, -0.00, -1.00, 97.0, 120.0)">o</text><text xml:space="preserve" font-family="CourierNewPSMT" font-size="30.0" fill="#000000" transform="matrix(1.00, 0.00, -0.00, -1.00, 115.0, 120.0)">n</text><text xml:space="preserve" font-family="CourierNewPSMT" font-size="30.0" fill="#000000" transform="matrix(1.00, 0.00, -0.00, -1.00, 133.0, 120.0)">s</text><text xml:space="preserve" font-family="CourierNewPSMT" font-size="30.0" fill="#000000" transform="matrix(1.00, 0.00, -0.00, -1.00, 151.0, 120.0)">o</text><text xml:space="preserve" font-family="CourierNewPSMT" font-size="30.0" fill="#000000" transform="matrix(1.00, 0.00, -0.00, -1.00, 169.0, 120.0)">l</text><text xml:space="preserve" font-family="CourierNewPSMT" font-size="30.0" fill="#000000" transform="matrix(1.00, 0.00, -0.00, -1.00, 187.0, 120.0)">e</text><text xml:space="preserve" font-family="CourierNewPSMT" font-size="30.0" fill="#000000" transform="matrix(1.00, 0.00, -0.00, -1.00, 205.0, 120.0)">.</text><text xml:space="preserve" font-family="CourierNewPSMT" font-size="30.0" fill="#021993" transform="matrix(1.00, 0.00, -0.00, -1.00, 223.0, 120.0)">l</text><text xml:space="preserve" font-family="CourierNewPSMT" font-size="30.0" fill="#021993" transform="matrix(1.00, 0.00, -0.00, -1.00, 241.0, 120.0)">o</text><text xml:space="preserve" font-family="CourierNewPSMT" font-size="30.0" fill="#021993" transform="matrix(1.00, 0.00, -0.00, -1.00, 259.0, 120.0)">g</text><text xml:space="preserve" font-family="CourierNewPSMT" font-size="30.0" fill="#000000" transform="matrix(1.00, 0.00, -0.00, -1.00, 277.0, 120.0)">(</text><text xml:space="preserve" font-family="CourierNewPSMT" font-size="30.0" fill="#000000" transform="matrix(1.00, 0.00, -0.00, -1.00, 295.0, 120.0)">c</text><text xml:space="preserve" font-family="CourierNewPSMT" font-size="30.0" fill="#000000" transform="matrix(1.00, 0.00, -0.00, -1.00, 313.0, 120.0)">i</text><text xml:space="preserve" font-family="CourierNewPSMT" font-size="30.0" fill="#000000" transform="matrix(1.00, 0.00, -0.00, -1.00, 331.0, 120.0)">t</text><text xml:space="preserve" font-family="CourierNewPSMT" font-size="30.0" fill="#000000" transform="matrix(1.00, 0.00, -0.00, -1.00, 349.1, 120.0)">i</text><text xml:space="preserve" font-family="CourierNewPSMT" font-size="30.0" fill="#000000" transform="matrix(1.00, 0.00, -0.00, -1.00, 367.1, 120.0)">e</text><text xml:space="preserve" font-family="CourierNewPSMT" font-size="30.0" fill="#000000" transform="matrix(1.00, 0.00, -0.00, -1.00, 385.1, 120.0)">s</text><text xml:space="preserve" font-family="CourierNewPSMT" font-size="30.0" fill="#000000" transform="matrix(1.00, 0.00, -0.00, -1.00, 403.1, 120.0)">)</text><text xml:space="preserve" font-family="CourierNewPSMT" font-size="30.0" fill="#000000" transform="matrix(1.00, 0.00, -0.00, -1.00, 421.1, 120.0)"> </text><text xml:space="preserve" font-family="CourierNewPSMT" font-size="30.0" fill="#000000" transform="matrix(1.00, 0.00, -0.00, -1.00, 79.0, 86.0)">=</text><text xml:space="preserve" font-family="CourierNewPSMT" font-size="30.0" fill="#000000" transform="matrix(1.00, 0.00, -0.00, -1.00, 97.0, 86.0)">&gt;</text><text xml:space="preserve" font-family="CourierNewPSMT" font-size="30.0" fill="#CC1C00" transform="matrix(1.00, 0.00, -0.00, -1.00, 115.0, 86.0)"> </text><text xml:space="preserve" font-family="CourierNewPSMT" font-size="30.0" fill="#000000" transform="matrix(1.00, 0.00, -0.00, -1.00, 133.0, 86.0)">[</text><text xml:space="preserve" font-family="CourierNewPSMT" font-size="30.0" fill="#CC1C00" transform="matrix(1.00, 0.00, -0.00, -1.00, 151.0, 86.0)">"</text><text xml:space="preserve" font-family="CourierNewPSMT" font-size="30.0" fill="#CC1C00" transform="matrix(1.00, 0.00, -0.00, -1.00, 169.0, 86.0)">P</text><text xml:space="preserve" font-family="CourierNewPSMT" font-size="30.0" fill="#CC1C00" transform="matrix(1.00, 0.00, -0.00, -1.00, 187.0, 86.0)">h</text><text xml:space="preserve" font-family="CourierNewPSMT" font-size="30.0" fill="#CC1C00" transform="matrix(1.00, 0.00, -0.00, -1.00, 205.0, 86.0)">i</text><text xml:space="preserve" font-family="CourierNewPSMT" font-size="30.0" fill="#CC1C00" transform="matrix(1.00, 0.00, -0.00, -1.00, 223.0, 86.0)">l</text><text xml:space="preserve" font-family="CourierNewPSMT" font-size="30.0" fill="#CC1C00" transform="matrix(1.00, 0.00, -0.00, -1.00, 241.0, 86.0)">a</text><text xml:space="preserve" font-family="CourierNewPSMT" font-size="30.0" fill="#CC1C00" transform="matrix(1.00, 0.00, -0.00, -1.00, 259.0, 86.0)">d</text><text xml:space="preserve" font-family="CourierNewPSMT" font-size="30.0" fill="#CC1C00" transform="matrix(1.00, 0.00, -0.00, -1.00, 277.1, 86.0)">e</text><text xml:space="preserve" font-family="CourierNewPSMT" font-size="30.0" fill="#CC1C00" transform="matrix(1.00, 0.00, -0.00, -1.00, 295.1, 86.0)">l</text><text xml:space="preserve" font-family="CourierNewPSMT" font-size="30.0" fill="#CC1C00" transform="matrix(1.00, 0.00, -0.00, -1.00, 313.1, 86.0)">p</text><text xml:space="preserve" font-family="CourierNewPSMT" font-size="30.0" fill="#CC1C00" transform="matrix(1.00, 0.00, -0.00, -1.00, 331.1, 86.0)">h</text><text xml:space="preserve" font-family="CourierNewPSMT" font-size="30.0" fill="#CC1C00" transform="matrix(1.00, 0.00, -0.00, -1.00, 349.1, 86.0)">i</text><text xml:space="preserve" font-family="CourierNewPSMT" font-size="30.0" fill="#CC1C00" transform="matrix(1.00, 0.00, -0.00, -1.00, 367.1, 86.0)">a</text><text xml:space="preserve" font-family="CourierNewPSMT" font-size="30.0" fill="#CC1C00" transform="matrix(1.00, 0.00, -0.00, -1.00, 385.1, 86.0)">"</text><text xml:space="preserve" font-family="CourierNewPSMT" font-size="30.0" fill="#000000" transform="matrix(1.00, 0.00, -0.00, -1.00, 403.1, 86.0)">,</text><text xml:space="preserve" font-family="CourierNewPSMT" font-size="30.0" fill="#000000" transform="matrix(1.00, 0.00, -0.00, -1.00, 421.1, 86.0)"> </text><text xml:space="preserve" font-family="CourierNewPSMT" font-size="30.0" fill="#CC1C00" transform="matrix(1.00, 0.00, -0.00, -1.00, 439.1, 86.0)">"</text><text xml:space="preserve" font-family="CourierNewPSMT" font-size="30.0" fill="#CC1C00" transform="matrix(1.00, 0.00, -0.00, -1.00, 457.1, 86.0)">N</text><text xml:space="preserve" font-family="CourierNewPSMT" font-size="30.0" fill="#CC1C00" transform="matrix(1.00, 0.00, -0.00, -1.00, 475.1, 86.0)">e</text><text xml:space="preserve" font-family="CourierNewPSMT" font-size="30.0" fill="#CC1C00" transform="matrix(1.00, 0.00, -0.00, -1.00, 493.1, 86.0)">w</text><text xml:space="preserve" font-family="CourierNewPSMT" font-size="30.0" fill="#CC1C00" transform="matrix(1.00, 0.00, -0.00, -1.00, 511.1, 86.0)"> </text><text xml:space="preserve" font-family="CourierNewPSMT" font-size="30.0" fill="#CC1C00" transform="matrix(1.00, 0.00, -0.00, -1.00, 529.1, 86.0)">Y</text><text xml:space="preserve" font-family="CourierNewPSMT" font-size="30.0" fill="#CC1C00" transform="matrix(1.00, 0.00, -0.00, -1.00, 547.1, 86.0)">o</text><text xml:space="preserve" font-family="CourierNewPSMT" font-size="30.0" fill="#CC1C00" transform="matrix(1.00, 0.00, -0.00, -1.00, 565.1, 86.0)">r</text><text xml:space="preserve" font-family="CourierNewPSMT" font-size="30.0" fill="#CC1C00" transform="matrix(1.00, 0.00, -0.00, -1.00, 583.1, 86.0)">k</text><text xml:space="preserve" font-family="CourierNewPSMT" font-size="30.0" fill="#CC1C00" transform="matrix(1.00, 0.00, -0.00, -1.00, 601.1, 86.0)">"</text><text xml:space="preserve" font-family="CourierNewPSMT" font-size="30.0" fill="#000000" transform="matrix(1.00, 0.00, -0.00, -1.00, 619.1, 86.0)">,</text><text xml:space="preserve" font-family="CourierNewPSMT" font-size="30.0" fill="#000000" transform="matrix(1.00, 0.00, -0.00, -1.00, 637.1, 86.0)"> </text><text xml:space="preserve" font-family="CourierNewPSMT" font-size="30.0" fill="#CC1C00" transform="matrix(1.00, 0.00, -0.00, -1.00, 655.1, 86.0)">"</text><text xml:space="preserve" font-family="CourierNewPSMT" font-size="30.0" fill="#CC1C00" transform="matrix(1.00, 0.00, -0.00, -1.00, 673.1, 86.0)">S</text><text xml:space="preserve" font-family="CourierNewPSMT" font-size="30.0" fill="#CC1C00" transform="matrix(1.00, 0.00, -0.00, -1.00, 691.1, 86.0)">a</text><text xml:space="preserve" font-family="CourierNewPSMT" font-size="30.0" fill="#CC1C00" transform="matrix(1.00, 0.00, -0.00, -1.00, 709.1, 86.0)">n</text><text xml:space="preserve" font-family="CourierNewPSMT" font-size="30.0" fill="#CC1C00" transform="matrix(1.00, 0.00, -0.00, -1.00, 727.1, 86.0)"> </text><text xml:space="preserve" font-family="CourierNewPSMT" font-size="30.0" fill="#CC1C00" transform="matrix(1.00, 0.00, -0.00, -1.00, 745.1, 86.0)">F</text><text xml:space="preserve" font-family="CourierNewPSMT" font-size="30.0" fill="#CC1C00" transform="matrix(1.00, 0.00, -0.00, -1.00, 763.1, 86.0)">r</text><text xml:space="preserve" font-family="CourierNewPSMT" font-size="30.0" fill="#CC1C00" transform="matrix(1.00, 0.00, -0.00, -1.00, 781.1, 86.0)">a</text><text xml:space="preserve" font-family="CourierNewPSMT" font-size="30.0" fill="#CC1C00" transform="matrix(1.00, 0.00, -0.00, -1.00, 799.1, 86.0)">n</text><text xml:space="preserve" font-family="CourierNewPSMT" font-size="30.0" fill="#CC1C00" transform="matrix(1.00, 0.00, -0.00, -1.00, 817.1, 86.0)">c</text><text xml:space="preserve" font-family="CourierNewPSMT" font-size="30.0" fill="#CC1C00" transform="matrix(1.00, 0.00, -0.00, -1.00, 835.2, 86.0)">i</text><text xml:space="preserve" font-family="CourierNewPSMT" font-size="30.0" fill="#CC1C00" transform="matrix(1.00, 0.00, -0.00, -1.00, 853.2, 86.0)">s</text><text xml:space="preserve" font-family="CourierNewPSMT" font-size="30.0" fill="#CC1C00" transform="matrix(1.00, 0.00, -0.00, -1.00, 871.2, 86.0)">c</text><text xml:space="preserve" font-family="CourierNewPSMT" font-size="30.0" fill="#CC1C00" transform="matrix(1.00, 0.00, -0.00, -1.00, 889.2, 86.0)">o</text><text xml:space="preserve" font-family="CourierNewPSMT" font-size="30.0" fill="#CC1C00" transform="matrix(1.00, 0.00, -0.00, -1.00, 907.2, 86.0)">"</text><text xml:space="preserve" font-family="CourierNewPSMT" font-size="30.0" fill="#000000" transform="matrix(1.00, 0.00, -0.00, -1.00, 925.1, 86.0)">]</text></g></svg>