<?xml version="1.0" encoding="UTF-8" standalone="no"?><svg xmlns="http://www.w3.org/2000/svg" xmlns:xlink="http://www.w3.org/1999/xlink" clip-rule="evenodd" stroke-miterlimit="4.00" viewBox="0 0 1024 768"><desc>SVG generated by Keynote</desc><defs></defs><g transform="matrix(1.00, 0.00, -0.00, -1.00, 0.0, 768.0)"><path d="M 0.0 768.0 L 1024.0 768.0 L 1024.0 0.0 L 0.0 0.0 Z M 0.0 768.0 " fill="#FEFFFF"></path><text xml:space="preserve" font-family="Helvetica-Light" font-size="80.0" fill="#000000" transform="matrix(1.00, 0.00, -0.00, -1.00, 233.0, 618.0)">C</text><text xml:space="preserve" font-family="Helvetica-Light" font-size="80.0" fill="#000000" transform="matrix(1.00, 0.00, -0.00, -1.00, 290.8, 618.0)">r</text><text xml:space="preserve" font-family="Helvetica-Light" font-size="80.0" fill="#000000" transform="matrix(1.00, 0.00, -0.00, -1.00, 316.0, 618.0)">e</text><text xml:space="preserve" font-family="Helvetica-Light" font-size="80.0" fill="#000000" transform="matrix(1.00, 0.00, -0.00, -1.00, 360.4, 618.0)">a</text><text xml:space="preserve" font-family="Helvetica-Light" font-size="80.0" fill="#000000" transform="matrix(1.00, 0.00, -0.00, -1.00, 404.9, 618.0)">t</text><text xml:space="preserve" font-family="Helvetica-Light" font-size="80.0" fill="#000000" transform="matrix(1.00, 0.00, -0.00, -1.00, 427.2, 618.0)">i</text><text xml:space="preserve" font-family="Helvetica-Light" font-size="80.0" fill="#000000" transform="matrix(1.00, 0.00, -0.00, -1.00, 444.9, 618.0)">n</text><text xml:space="preserve" font-family="Helvetica-Light" font-size="80.0" fill="#000000" transform="matrix(1.00, 0.00, -0.00, -1.00, 489.4, 618.0)">g</text><text xml:space="preserve" font-family="Helvetica-Light" font-size="80.0" fill="#000000" transform="matrix(1.00, 0.00, -0.00, -1.00, 538.3, 618.0)"> </text><text xml:space="preserve" font-family="Helvetica-Light" font-size="80.0" fill="#000000" transform="matrix(1.00, 0.00, -0.00, -1.00, 560.5, 618.0)">A</text><text xml:space="preserve" font-family="Helvetica-Light" font-size="80.0" fill="#000000" transform="matrix(1.00, 0.00, -0.00, -1.00, 613.9, 618.0)">r</text><text xml:space="preserve" font-family="Helvetica-Light" font-size="80.0" fill="#000000" transform="matrix(1.00, 0.00, -0.00, -1.00, 640.5, 618.0)">r</text><text xml:space="preserve" font-family="Helvetica-Light" font-size="80.0" fill="#000000" transform="matrix(1.00, 0.00, -0.00, -1.00, 667.2, 618.0)">a</text><text xml:space="preserve" font-family="Helvetica-Light" font-size="80.0" fill="#000000" transform="matrix(1.00, 0.00, -0.00, -1.00, 711.6, 618.0)">y</text><text xml:space="preserve" font-family="Helvetica-Light" font-size="80.0" fill="#000000" transform="matrix(1.00, 0.00, -0.00, -1.00, 751.6, 618.0)">s</text><text xml:space="preserve" font-family="Helvetica" font-size="30.4" fill="#000000" transform="matrix(1.00, 0.00, -0.00, -1.00, 79.0, 529.0)">A</text><text xml:space="preserve" font-family="Helvetica" font-size="30.4" fill="#000000" transform="matrix(1.00, 0.00, -0.00, -1.00, 99.3, 529.0)">r</text><text xml:space="preserve" font-family="Helvetica" font-size="30.4" fill="#000000" transform="matrix(1.00, 0.00, -0.00, -1.00, 109.4, 529.0)">r</text><text xml:space="preserve" font-family="Helvetica" font-size="30.4" fill="#000000" transform="matrix(1.00, 0.00, -0.00, -1.00, 119.5, 529.0)">a</text><text xml:space="preserve" font-family="Helvetica" font-size="30.4" fill="#000000" transform="matrix(1.00, 0.00, -0.00, -1.00, 136.4, 529.0)">y</text><text xml:space="preserve" font-family="Helvetica" font-size="30.4" fill="#000000" transform="matrix(1.00, 0.00, -0.00, -1.00, 151.6, 529.0)"> </text><text xml:space="preserve" font-family="Helvetica" font-size="30.4" fill="#000000" transform="matrix(1.00, 0.00, -0.00, -1.00, 160.1, 529.0)">l</text><text xml:space="preserve" font-family="Helvetica" font-size="30.4" fill="#000000" transform="matrix(1.00, 0.00, -0.00, -1.00, 166.8, 529.0)">i</text><text xml:space="preserve" font-family="Helvetica" font-size="30.4" fill="#000000" transform="matrix(1.00, 0.00, -0.00, -1.00, 173.6, 529.0)">t</text><text xml:space="preserve" font-family="Helvetica" font-size="30.4" fill="#000000" transform="matrix(1.00, 0.00, -0.00, -1.00, 182.0, 529.0)">e</text><text xml:space="preserve" font-family="Helvetica" font-size="30.4" fill="#000000" transform="matrix(1.00, 0.00, -0.00, -1.00, 198.9, 529.0)">r</text><text xml:space="preserve" font-family="Helvetica" font-size="30.4" fill="#000000" transform="matrix(1.00, 0.00, -0.00, -1.00, 209.1, 529.0)">a</text><text xml:space="preserve" font-family="Helvetica" font-size="30.4" fill="#000000" transform="matrix(1.00, 0.00, -0.00, -1.00, 226.0, 529.0)">l</text><text xml:space="preserve" font-family="Helvetica" font-size="30.4" fill="#000000" transform="matrix(1.00, 0.00, -0.00, -1.00, 232.7, 529.0)">:</text><text xml:space="preserve" font-family="CourierNewPS-BoldMT" font-weight="bold" font-size="30.4" fill="#000000" transform="matrix(1.00, 0.00, -0.00, -1.00, 79.0, 463.0)">v</text><text xml:space="preserve" font-family="CourierNewPS-BoldMT" font-weight="bold" font-size="30.4" fill="#000000" transform="matrix(1.00, 0.00, -0.00, -1.00, 97.2, 463.0)">a</text><text xml:space="preserve" font-family="CourierNewPS-BoldMT" font-weight="bold" font-size="30.4" fill="#000000" transform="matrix(1.00, 0.00, -0.00, -1.00, 115.5, 463.0)">r</text><text xml:space="preserve" font-family="CourierNewPSMT" font-size="30.4" fill="#000000" transform="matrix(1.00, 0.00, -0.00, -1.00, 133.7, 463.0)"> </text><text xml:space="preserve" font-family="CourierNewPSMT" font-size="30.4" fill="#000000" transform="matrix(1.00, 0.00, -0.00, -1.00, 152.0, 463.0)">g</text><text xml:space="preserve" font-family="CourierNewPSMT" font-size="30.4" fill="#000000" transform="matrix(1.00, 0.00, -0.00, -1.00, 170.2, 463.0)">r</text><text xml:space="preserve" font-family="CourierNewPSMT" font-size="30.4" fill="#000000" transform="matrix(1.00, 0.00, -0.00, -1.00, 188.5, 463.0)">i</text><text xml:space="preserve" font-family="CourierNewPSMT" font-size="30.4" fill="#000000" transform="matrix(1.00, 0.00, -0.00, -1.00, 206.7, 463.0)">l</text><text xml:space="preserve" font-family="CourierNewPSMT" font-size="30.4" fill="#000000" transform="matrix(1.00, 0.00, -0.00, -1.00, 225.0, 463.0)">l</text><text xml:space="preserve" font-family="CourierNewPSMT" font-size="30.4" fill="#000000" transform="matrix(1.00, 0.00, -0.00, -1.00, 243.2, 463.0)">e</text><text xml:space="preserve" font-family="CourierNewPSMT" font-size="30.4" fill="#000000" transform="matrix(1.00, 0.00, -0.00, -1.00, 261.5, 463.0)">d</text><text xml:space="preserve" font-family="CourierNewPSMT" font-size="30.4" fill="#000000" transform="matrix(1.00, 0.00, -0.00, -1.00, 279.7, 463.0)">C</text><text xml:space="preserve" font-family="CourierNewPSMT" font-size="30.4" fill="#000000" transform="matrix(1.00, 0.00, -0.00, -1.00, 297.9, 463.0)">h</text><text xml:space="preserve" font-family="CourierNewPSMT" font-size="30.4" fill="#000000" transform="matrix(1.00, 0.00, -0.00, -1.00, 316.2, 463.0)">e</text><text xml:space="preserve" font-family="CourierNewPSMT" font-size="30.4" fill="#000000" transform="matrix(1.00, 0.00, -0.00, -1.00, 334.4, 463.0)">e</text><text xml:space="preserve" font-family="CourierNewPSMT" font-size="30.4" fill="#000000" transform="matrix(1.00, 0.00, -0.00, -1.00, 352.7, 463.0)">s</text><text xml:space="preserve" font-family="CourierNewPSMT" font-size="30.4" fill="#000000" transform="matrix(1.00, 0.00, -0.00, -1.00, 370.9, 463.0)">e</text><text xml:space="preserve" font-family="CourierNewPSMT" font-size="30.4" fill="#000000" transform="matrix(1.00, 0.00, -0.00, -1.00, 389.2, 463.0)">I</text><text xml:space="preserve" font-family="CourierNewPSMT" font-size="30.4" fill="#000000" transform="matrix(1.00, 0.00, -0.00, -1.00, 407.4, 463.0)">n</text><text xml:space="preserve" font-family="CourierNewPSMT" font-size="30.4" fill="#000000" transform="matrix(1.00, 0.00, -0.00, -1.00, 425.7, 463.0)">g</text><text xml:space="preserve" font-family="CourierNewPSMT" font-size="30.4" fill="#000000" transform="matrix(1.00, 0.00, -0.00, -1.00, 443.9, 463.0)">r</text><text xml:space="preserve" font-family="CourierNewPSMT" font-size="30.4" fill="#000000" transform="matrix(1.00, 0.00, -0.00, -1.00, 462.2, 463.0)">e</text><text xml:space="preserve" font-family="CourierNewPSMT" font-size="30.4" fill="#000000" transform="matrix(1.00, 0.00, -0.00, -1.00, 480.4, 463.0)">d</text><text xml:space="preserve" font-family="CourierNewPSMT" font-size="30.4" fill="#000000" transform="matrix(1.00, 0.00, -0.00, -1.00, 498.6, 463.0)">i</text><text xml:space="preserve" font-family="CourierNewPSMT" font-size="30.4" fill="#000000" transform="matrix(1.00, 0.00, -0.00, -1.00, 516.9, 463.0)">e</text><text xml:space="preserve" font-family="CourierNewPSMT" font-size="30.4" fill="#000000" transform="matrix(1.00, 0.00, -0.00, -1.00, 535.1, 463.0)">n</text><text xml:space="preserve" font-family="CourierNewPSMT" font-size="30.4" fill="#000000" transform="matrix(1.00, 0.00, -0.00, -1.00, 553.4, 463.0)">t</text><text xml:space="preserve" font-family="CourierNewPSMT" font-size="30.4" fill="#000000" transform="matrix(1.00, 0.00, -0.00, -1.00, 571.6, 463.0)">s</text><text xml:space="preserve" font-family="CourierNewPSMT" font-size="30.4" fill="#000000" transform="matrix(1.00, 0.00, -0.00, -1.00, 589.9, 463.0)"> </text><text xml:space="preserve" font-family="CourierNewPSMT" font-size="30.4" fill="#000000" transform="matrix(1.00, 0.00, -0.00, -1.00, 608.1, 463.0)">=</text><text xml:space="preserve" font-family="CourierNewPSMT" font-size="30.4" fill="#000000" transform="matrix(1.00, 0.00, -0.00, -1.00, 626.4, 463.0)"> </text><text xml:space="preserve" font-family="CourierNewPSMT" font-size="30.4" fill="#000000" transform="matrix(1.00, 0.00, -0.00, -1.00, 644.6, 463.0)">[</text><text xml:space="preserve" font-family="CourierNewPSMT" font-size="30.4" fill="#000000" transform="matrix(1.00, 0.00, -0.00, -1.00, 662.9, 463.0)"> </text><text xml:space="preserve" font-family="CourierNewPSMT" font-size="30.4" fill="#000000" transform="matrix(1.00, 0.00, -0.00, -1.00, 79.0, 429.0)"> </text><text xml:space="preserve" font-family="CourierNewPSMT" font-size="30.4" fill="#000000" transform="matrix(1.00, 0.00, -0.00, -1.00, 97.2, 429.0)"> </text><text xml:space="preserve" font-family="CourierNewPSMT" font-size="30.4" fill="#CC1C00" transform="matrix(1.00, 0.00, -0.00, -1.00, 115.5, 429.0)">'</text><text xml:space="preserve" font-family="CourierNewPSMT" font-size="30.4" fill="#CC1C00" transform="matrix(1.00, 0.00, -0.00, -1.00, 133.7, 429.0)">b</text><text xml:space="preserve" font-family="CourierNewPSMT" font-size="30.4" fill="#CC1C00" transform="matrix(1.00, 0.00, -0.00, -1.00, 152.0, 429.0)">r</text><text xml:space="preserve" font-family="CourierNewPSMT" font-size="30.4" fill="#CC1C00" transform="matrix(1.00, 0.00, -0.00, -1.00, 170.2, 429.0)">e</text><text xml:space="preserve" font-family="CourierNewPSMT" font-size="30.4" fill="#CC1C00" transform="matrix(1.00, 0.00, -0.00, -1.00, 188.5, 429.0)">a</text><text xml:space="preserve" font-family="CourierNewPSMT" font-size="30.4" fill="#CC1C00" transform="matrix(1.00, 0.00, -0.00, -1.00, 206.7, 429.0)">d</text><text xml:space="preserve" font-family="CourierNewPSMT" font-size="30.4" fill="#CC1C00" transform="matrix(1.00, 0.00, -0.00, -1.00, 225.0, 429.0)">'</text><text xml:space="preserve" font-family="CourierNewPSMT" font-size="30.4" fill="#000000" transform="matrix(1.00, 0.00, -0.00, -1.00, 243.2, 429.0)">,</text><text xml:space="preserve" font-family="CourierNewPSMT" font-size="30.4" fill="#000000" transform="matrix(1.00, 0.00, -0.00, -1.00, 261.4, 429.0)"> </text><text xml:space="preserve" font-family="CourierNewPSMT" font-size="30.4" fill="#000000" transform="matrix(1.00, 0.00, -0.00, -1.00, 79.0, 395.0)"> </text><text xml:space="preserve" font-family="CourierNewPSMT" font-size="30.4" fill="#000000" transform="matrix(1.00, 0.00, -0.00, -1.00, 97.2, 395.0)"> </text><text xml:space="preserve" font-family="CourierNewPSMT" font-size="30.4" fill="#CC1C00" transform="matrix(1.00, 0.00, -0.00, -1.00, 115.5, 395.0)">'</text><text xml:space="preserve" font-family="CourierNewPSMT" font-size="30.4" fill="#CC1C00" transform="matrix(1.00, 0.00, -0.00, -1.00, 133.7, 395.0)">m</text><text xml:space="preserve" font-family="CourierNewPSMT" font-size="30.4" fill="#CC1C00" transform="matrix(1.00, 0.00, -0.00, -1.00, 152.0, 395.0)">i</text><text xml:space="preserve" font-family="CourierNewPSMT" font-size="30.4" fill="#CC1C00" transform="matrix(1.00, 0.00, -0.00, -1.00, 170.2, 395.0)">l</text><text xml:space="preserve" font-family="CourierNewPSMT" font-size="30.4" fill="#CC1C00" transform="matrix(1.00, 0.00, -0.00, -1.00, 188.5, 395.0)">d</text><text xml:space="preserve" font-family="CourierNewPSMT" font-size="30.4" fill="#CC1C00" transform="matrix(1.00, 0.00, -0.00, -1.00, 206.7, 395.0)"> </text><text xml:space="preserve" font-family="CourierNewPSMT" font-size="30.4" fill="#CC1C00" transform="matrix(1.00, 0.00, -0.00, -1.00, 225.0, 395.0)">c</text><text xml:space="preserve" font-family="CourierNewPSMT" font-size="30.4" fill="#CC1C00" transform="matrix(1.00, 0.00, -0.00, -1.00, 243.2, 395.0)">h</text><text xml:space="preserve" font-family="CourierNewPSMT" font-size="30.4" fill="#CC1C00" transform="matrix(1.00, 0.00, -0.00, -1.00, 261.5, 395.0)">e</text><text xml:space="preserve" font-family="CourierNewPSMT" font-size="30.4" fill="#CC1C00" transform="matrix(1.00, 0.00, -0.00, -1.00, 279.7, 395.0)">e</text><text xml:space="preserve" font-family="CourierNewPSMT" font-size="30.4" fill="#CC1C00" transform="matrix(1.00, 0.00, -0.00, -1.00, 297.9, 395.0)">s</text><text xml:space="preserve" font-family="CourierNewPSMT" font-size="30.4" fill="#CC1C00" transform="matrix(1.00, 0.00, -0.00, -1.00, 316.2, 395.0)">e</text><text xml:space="preserve" font-family="CourierNewPSMT" font-size="30.4" fill="#CC1C00" transform="matrix(1.00, 0.00, -0.00, -1.00, 334.4, 395.0)">'</text><text xml:space="preserve" font-family="CourierNewPSMT" font-size="30.4" fill="#000000" transform="matrix(1.00, 0.00, -0.00, -1.00, 352.6, 395.0)">,</text><text xml:space="preserve" font-family="CourierNewPSMT" font-size="30.4" fill="#000000" transform="matrix(1.00, 0.00, -0.00, -1.00, 370.9, 395.0)"> </text><text xml:space="preserve" font-family="CourierNewPSMT" font-size="30.4" fill="#000000" transform="matrix(1.00, 0.00, -0.00, -1.00, 79.0, 361.0)"> </text><text xml:space="preserve" font-family="CourierNewPSMT" font-size="30.4" fill="#000000" transform="matrix(1.00, 0.00, -0.00, -1.00, 97.2, 361.0)"> </text><text xml:space="preserve" font-family="CourierNewPSMT" font-size="30.4" fill="#CC1C00" transform="matrix(1.00, 0.00, -0.00, -1.00, 115.5, 361.0)">'</text><text xml:space="preserve" font-family="CourierNewPSMT" font-size="30.4" fill="#CC1C00" transform="matrix(1.00, 0.00, -0.00, -1.00, 133.7, 361.0)">s</text><text xml:space="preserve" font-family="CourierNewPSMT" font-size="30.4" fill="#CC1C00" transform="matrix(1.00, 0.00, -0.00, -1.00, 152.0, 361.0)">h</text><text xml:space="preserve" font-family="CourierNewPSMT" font-size="30.4" fill="#CC1C00" transform="matrix(1.00, 0.00, -0.00, -1.00, 170.2, 361.0)">a</text><text xml:space="preserve" font-family="CourierNewPSMT" font-size="30.4" fill="#CC1C00" transform="matrix(1.00, 0.00, -0.00, -1.00, 188.5, 361.0)">r</text><text xml:space="preserve" font-family="CourierNewPSMT" font-size="30.4" fill="#CC1C00" transform="matrix(1.00, 0.00, -0.00, -1.00, 206.7, 361.0)">p</text><text xml:space="preserve" font-family="CourierNewPSMT" font-size="30.4" fill="#CC1C00" transform="matrix(1.00, 0.00, -0.00, -1.00, 225.0, 361.0)"> </text><text xml:space="preserve" font-family="CourierNewPSMT" font-size="30.4" fill="#CC1C00" transform="matrix(1.00, 0.00, -0.00, -1.00, 243.2, 361.0)">c</text><text xml:space="preserve" font-family="CourierNewPSMT" font-size="30.4" fill="#CC1C00" transform="matrix(1.00, 0.00, -0.00, -1.00, 261.5, 361.0)">h</text><text xml:space="preserve" font-family="CourierNewPSMT" font-size="30.4" fill="#CC1C00" transform="matrix(1.00, 0.00, -0.00, -1.00, 279.7, 361.0)">e</text><text xml:space="preserve" font-family="CourierNewPSMT" font-size="30.4" fill="#CC1C00" transform="matrix(1.00, 0.00, -0.00, -1.00, 297.9, 361.0)">e</text><text xml:space="preserve" font-family="CourierNewPSMT" font-size="30.4" fill="#CC1C00" transform="matrix(1.00, 0.00, -0.00, -1.00, 316.2, 361.0)">s</text><text xml:space="preserve" font-family="CourierNewPSMT" font-size="30.4" fill="#CC1C00" transform="matrix(1.00, 0.00, -0.00, -1.00, 334.4, 361.0)">e</text><text xml:space="preserve" font-family="CourierNewPSMT" font-size="30.4" fill="#CC1C00" transform="matrix(1.00, 0.00, -0.00, -1.00, 352.7, 361.0)">'</text><text xml:space="preserve" font-family="CourierNewPSMT" font-size="30.4" fill="#000000" transform="matrix(1.00, 0.00, -0.00, -1.00, 370.9, 361.0)">,</text><text xml:space="preserve" font-family="CourierNewPSMT" font-size="30.4" fill="#000000" transform="matrix(1.00, 0.00, -0.00, -1.00, 389.1, 361.0)"> </text><text xml:space="preserve" font-family="CourierNewPSMT" font-size="30.4" fill="#000000" transform="matrix(1.00, 0.00, -0.00, -1.00, 79.0, 327.0)"> </text><text xml:space="preserve" font-family="CourierNewPSMT" font-size="30.4" fill="#000000" transform="matrix(1.00, 0.00, -0.00, -1.00, 97.2, 327.0)"> </text><text xml:space="preserve" font-family="CourierNewPSMT" font-size="30.4" fill="#CC1C00" transform="matrix(1.00, 0.00, -0.00, -1.00, 115.5, 327.0)">'</text><text xml:space="preserve" font-family="CourierNewPSMT" font-size="30.4" fill="#CC1C00" transform="matrix(1.00, 0.00, -0.00, -1.00, 133.7, 327.0)">b</text><text xml:space="preserve" font-family="CourierNewPSMT" font-size="30.4" fill="#CC1C00" transform="matrix(1.00, 0.00, -0.00, -1.00, 152.0, 327.0)">u</text><text xml:space="preserve" font-family="CourierNewPSMT" font-size="30.4" fill="#CC1C00" transform="matrix(1.00, 0.00, -0.00, -1.00, 170.2, 327.0)">t</text><text xml:space="preserve" font-family="CourierNewPSMT" font-size="30.4" fill="#CC1C00" transform="matrix(1.00, 0.00, -0.00, -1.00, 188.5, 327.0)">t</text><text xml:space="preserve" font-family="CourierNewPSMT" font-size="30.4" fill="#CC1C00" transform="matrix(1.00, 0.00, -0.00, -1.00, 206.7, 327.0)">e</text><text xml:space="preserve" font-family="CourierNewPSMT" font-size="30.4" fill="#CC1C00" transform="matrix(1.00, 0.00, -0.00, -1.00, 225.0, 327.0)">r</text><text xml:space="preserve" font-family="CourierNewPSMT" font-size="30.4" fill="#CC1C00" transform="matrix(1.00, 0.00, -0.00, -1.00, 243.2, 327.0)">'</text><text xml:space="preserve" font-family="CourierNewPSMT" font-size="30.4" fill="#000000" transform="matrix(1.00, 0.00, -0.00, -1.00, 261.4, 327.0)">,</text><text xml:space="preserve" font-family="CourierNewPSMT" font-size="30.4" fill="#000000" transform="matrix(1.00, 0.00, -0.00, -1.00, 279.7, 327.0)"> </text><text xml:space="preserve" font-family="CourierNewPSMT" font-size="30.4" fill="#000000" transform="matrix(1.00, 0.00, -0.00, -1.00, 79.0, 293.0)"> </text><text xml:space="preserve" font-family="CourierNewPSMT" font-size="30.4" fill="#000000" transform="matrix(1.00, 0.00, -0.00, -1.00, 97.2, 293.0)"> </text><text xml:space="preserve" font-family="CourierNewPSMT" font-size="30.4" fill="#CC1C00" transform="matrix(1.00, 0.00, -0.00, -1.00, 115.5, 293.0)">'</text><text xml:space="preserve" font-family="CourierNewPSMT" font-size="30.4" fill="#CC1C00" transform="matrix(1.00, 0.00, -0.00, -1.00, 133.7, 293.0)">t</text><text xml:space="preserve" font-family="CourierNewPSMT" font-size="30.4" fill="#CC1C00" transform="matrix(1.00, 0.00, -0.00, -1.00, 152.0, 293.0)">o</text><text xml:space="preserve" font-family="CourierNewPSMT" font-size="30.4" fill="#CC1C00" transform="matrix(1.00, 0.00, -0.00, -1.00, 170.2, 293.0)">m</text><text xml:space="preserve" font-family="CourierNewPSMT" font-size="30.4" fill="#CC1C00" transform="matrix(1.00, 0.00, -0.00, -1.00, 188.5, 293.0)">a</text><text xml:space="preserve" font-family="CourierNewPSMT" font-size="30.4" fill="#CC1C00" transform="matrix(1.00, 0.00, -0.00, -1.00, 206.7, 293.0)">t</text><text xml:space="preserve" font-family="CourierNewPSMT" font-size="30.4" fill="#CC1C00" transform="matrix(1.00, 0.00, -0.00, -1.00, 225.0, 293.0)">o</text><text xml:space="preserve" font-family="CourierNewPSMT" font-size="30.4" fill="#CC1C00" transform="matrix(1.00, 0.00, -0.00, -1.00, 243.2, 293.0)">'</text><text xml:space="preserve" font-family="CourierNewPSMT" font-size="30.4" fill="#000000" transform="matrix(1.00, 0.00, -0.00, -1.00, 261.4, 293.0)">,</text><text xml:space="preserve" font-family="CourierNewPSMT" font-size="30.4" fill="#000000" transform="matrix(1.00, 0.00, -0.00, -1.00, 279.7, 293.0)"> </text><text xml:space="preserve" font-family="CourierNewPSMT" font-size="30.4" fill="#000000" transform="matrix(1.00, 0.00, -0.00, -1.00, 79.0, 259.0)"> </text><text xml:space="preserve" font-family="CourierNewPSMT" font-size="30.4" fill="#000000" transform="matrix(1.00, 0.00, -0.00, -1.00, 97.2, 259.0)"> </text><text xml:space="preserve" font-family="CourierNewPSMT" font-size="30.4" fill="#CC1C00" transform="matrix(1.00, 0.00, -0.00, -1.00, 115.5, 259.0)">'</text><text xml:space="preserve" font-family="CourierNewPSMT" font-size="30.4" fill="#CC1C00" transform="matrix(1.00, 0.00, -0.00, -1.00, 133.7, 259.0)">g</text><text xml:space="preserve" font-family="CourierNewPSMT" font-size="30.4" fill="#CC1C00" transform="matrix(1.00, 0.00, -0.00, -1.00, 152.0, 259.0)">a</text><text xml:space="preserve" font-family="CourierNewPSMT" font-size="30.4" fill="#CC1C00" transform="matrix(1.00, 0.00, -0.00, -1.00, 170.2, 259.0)">r</text><text xml:space="preserve" font-family="CourierNewPSMT" font-size="30.4" fill="#CC1C00" transform="matrix(1.00, 0.00, -0.00, -1.00, 188.5, 259.0)">l</text><text xml:space="preserve" font-family="CourierNewPSMT" font-size="30.4" fill="#CC1C00" transform="matrix(1.00, 0.00, -0.00, -1.00, 206.7, 259.0)">i</text><text xml:space="preserve" font-family="CourierNewPSMT" font-size="30.4" fill="#CC1C00" transform="matrix(1.00, 0.00, -0.00, -1.00, 225.0, 259.0)">c</text><text xml:space="preserve" font-family="CourierNewPSMT" font-size="30.4" fill="#CC1C00" transform="matrix(1.00, 0.00, -0.00, -1.00, 243.2, 259.0)">'</text><text xml:space="preserve" font-family="CourierNewPSMT" font-size="30.4" fill="#000000" transform="matrix(1.00, 0.00, -0.00, -1.00, 261.4, 259.0)"> </text><text xml:space="preserve" font-family="CourierNewPSMT" font-size="30.4" fill="#000000" transform="matrix(1.00, 0.00, -0.00, -1.00, 79.0, 225.0)">]</text><text xml:space="preserve" font-family="CourierNewPSMT" font-size="30.4" fill="#000000" transform="matrix(1.00, 0.00, -0.00, -1.00, 97.2, 225.0)"> </text><text xml:space="preserve" font-family="Helvetica" font-size="30.4" fill="#000000" transform="matrix(1.00, 0.00, -0.00, -1.00, 79.0, 153.0)">A</text><text xml:space="preserve" font-family="Helvetica" font-size="30.4" fill="#000000" transform="matrix(1.00, 0.00, -0.00, -1.00, 99.3, 153.0)">r</text><text xml:space="preserve" font-family="Helvetica" font-size="30.4" fill="#000000" transform="matrix(1.00, 0.00, -0.00, -1.00, 109.4, 153.0)">r</text><text xml:space="preserve" font-family="Helvetica" font-size="30.4" fill="#000000" transform="matrix(1.00, 0.00, -0.00, -1.00, 119.5, 153.0)">a</text><text xml:space="preserve" font-family="Helvetica" font-size="30.4" fill="#000000" transform="matrix(1.00, 0.00, -0.00, -1.00, 136.4, 153.0)">y</text><text xml:space="preserve" font-family="Helvetica" font-size="30.4" fill="#000000" transform="matrix(1.00, 0.00, -0.00, -1.00, 151.6, 153.0)"> </text><text xml:space="preserve" font-family="Helvetica" font-size="30.4" fill="#000000" transform="matrix(1.00, 0.00, -0.00, -1.00, 160.1, 153.0)">C</text><text xml:space="preserve" font-family="Helvetica" font-size="30.4" fill="#000000" transform="matrix(1.00, 0.00, -0.00, -1.00, 182.0, 153.0)">o</text><text xml:space="preserve" font-family="Helvetica" font-size="30.4" fill="#000000" transform="matrix(1.00, 0.00, -0.00, -1.00, 198.9, 153.0)">n</text><text xml:space="preserve" font-family="Helvetica" font-size="30.4" fill="#000000" transform="matrix(1.00, 0.00, -0.00, -1.00, 215.9, 153.0)">s</text><text xml:space="preserve" font-family="Helvetica" font-size="30.4" fill="#000000" transform="matrix(1.00, 0.00, -0.00, -1.00, 231.1, 153.0)">t</text><text xml:space="preserve" font-family="Helvetica" font-size="30.4" fill="#000000" transform="matrix(1.00, 0.00, -0.00, -1.00, 239.5, 153.0)">r</text><text xml:space="preserve" font-family="Helvetica" font-size="30.4" fill="#000000" transform="matrix(1.00, 0.00, -0.00, -1.00, 249.6, 153.0)">u</text><text xml:space="preserve" font-family="Helvetica" font-size="30.4" fill="#000000" transform="matrix(1.00, 0.00, -0.00, -1.00, 266.5, 153.0)">c</text><text xml:space="preserve" font-family="Helvetica" font-size="30.4" fill="#000000" transform="matrix(1.00, 0.00, -0.00, -1.00, 281.7, 153.0)">t</text><text xml:space="preserve" font-family="Helvetica" font-size="30.4" fill="#000000" transform="matrix(1.00, 0.00, -0.00, -1.00, 290.2, 153.0)">o</text><text xml:space="preserve" font-family="Helvetica" font-size="30.4" fill="#000000" transform="matrix(1.00, 0.00, -0.00, -1.00, 307.1, 153.0)">r</text><text xml:space="preserve" font-family="Helvetica" font-size="30.4" fill="#000000" transform="matrix(1.00, 0.00, -0.00, -1.00, 317.2, 153.0)">:</text><text xml:space="preserve" font-family="CourierNewPS-BoldMT" font-weight="bold" font-size="28.0" fill="#000000" transform="matrix(1.00, 0.00, -0.00, -1.00, 79.0, 80.0)">v</text><text xml:space="preserve" font-family="CourierNewPS-BoldMT" font-weight="bold" font-size="28.0" fill="#000000" transform="matrix(1.00, 0.00, -0.00, -1.00, 95.8, 80.0)">a</text><text xml:space="preserve" font-family="CourierNewPS-BoldMT" font-weight="bold" font-size="28.0" fill="#000000" transform="matrix(1.00, 0.00, -0.00, -1.00, 112.6, 80.0)">r</text><text xml:space="preserve" font-family="CourierNewPSMT" font-size="28.0" fill="#000000" transform="matrix(1.00, 0.00, -0.00, -1.00, 129.4, 80.0)"> </text><text xml:space="preserve" font-family="CourierNewPSMT" font-size="28.0" fill="#000000" transform="matrix(1.00, 0.00, -0.00, -1.00, 146.2, 80.0)">a</text><text xml:space="preserve" font-family="CourierNewPSMT" font-size="28.0" fill="#000000" transform="matrix(1.00, 0.00, -0.00, -1.00, 163.0, 80.0)">r</text><text xml:space="preserve" font-family="CourierNewPSMT" font-size="28.0" fill="#000000" transform="matrix(1.00, 0.00, -0.00, -1.00, 179.8, 80.0)">r</text><text xml:space="preserve" font-family="CourierNewPSMT" font-size="28.0" fill="#000000" transform="matrix(1.00, 0.00, -0.00, -1.00, 196.6, 80.0)">a</text><text xml:space="preserve" font-family="CourierNewPSMT" font-size="28.0" fill="#000000" transform="matrix(1.00, 0.00, -0.00, -1.00, 213.4, 80.0)">y</text><text xml:space="preserve" font-family="CourierNewPSMT" font-size="28.0" fill="#000000" transform="matrix(1.00, 0.00, -0.00, -1.00, 230.2, 80.0)"> </text><text xml:space="preserve" font-family="CourierNewPSMT" font-size="28.0" fill="#000000" transform="matrix(1.00, 0.00, -0.00, -1.00, 247.0, 80.0)">=</text><text xml:space="preserve" font-family="CourierNewPSMT" font-size="28.0" fill="#000000" transform="matrix(1.00, 0.00, -0.00, -1.00, 263.9, 80.0)"> </text><text xml:space="preserve" font-family="CourierNewPSMT" font-size="28.0" fill="#000000" transform="matrix(1.00, 0.00, -0.00, -1.00, 280.6, 80.0)">n</text><text xml:space="preserve" font-family="CourierNewPSMT" font-size="28.0" fill="#000000" transform="matrix(1.00, 0.00, -0.00, -1.00, 297.4, 80.0)">e</text><text xml:space="preserve" font-family="CourierNewPSMT" font-size="28.0" fill="#000000" transform="matrix(1.00, 0.00, -0.00, -1.00, 314.2, 80.0)">w</text><text xml:space="preserve" font-family="CourierNewPSMT" font-size="28.0" fill="#000000" transform="matrix(1.00, 0.00, -0.00, -1.00, 331.0, 80.0)"> </text><text xml:space="preserve" font-family="CourierNewPSMT" font-size="28.0" fill="#000000" transform="matrix(1.00, 0.00, -0.00, -1.00, 347.9, 80.0)">A</text><text xml:space="preserve" font-family="CourierNewPSMT" font-size="28.0" fill="#000000" transform="matrix(1.00, 0.00, -0.00, -1.00, 364.7, 80.0)">r</text><text xml:space="preserve" font-family="CourierNewPSMT" font-size="28.0" fill="#000000" transform="matrix(1.00, 0.00, -0.00, -1.00, 381.5, 80.0)">r</text><text xml:space="preserve" font-family="CourierNewPSMT" font-size="28.0" fill="#000000" transform="matrix(1.00, 0.00, -0.00, -1.00, 398.3, 80.0)">a</text><text xml:space="preserve" font-family="CourierNewPSMT" font-size="28.0" fill="#000000" transform="matrix(1.00, 0.00, -0.00, -1.00, 415.1, 80.0)">y</text><text xml:space="preserve" font-family="CourierNewPSMT" font-size="28.0" fill="#000000" transform="matrix(1.00, 0.00, -0.00, -1.00, 431.9, 80.0)">(</text><text xml:space="preserve" font-family="CourierNewPSMT" font-size="28.0" fill="#000000" transform="matrix(1.00, 0.00, -0.00, -1.00, 448.7, 80.0)">)</text></g></svg>