<?xml version="1.0" encoding="UTF-8" standalone="no"?><svg xmlns="http://www.w3.org/2000/svg" xmlns:xlink="http://www.w3.org/1999/xlink" clip-rule="evenodd" stroke-miterlimit="4.00" viewBox="0 0 1024 768"><desc>SVG generated by Keynote</desc><defs></defs><g transform="matrix(1.00, 0.00, -0.00, -1.00, 0.0, 768.0)"><path d="M 0.0 768.0 L 1024.0 768.0 L 1024.0 0.0 L 0.0 0.0 Z M 0.0 768.0 " fill="#FEFFFF"></path><text xml:space="preserve" font-family="Helvetica-Light" font-size="76.0" fill="#000000" transform="matrix(1.00, 0.00, -0.00, -1.00, 83.0, 619.0)">D</text><text xml:space="preserve" font-family="Helvetica-Light" font-size="76.0" fill="#000000" transform="matrix(1.00, 0.00, -0.00, -1.00, 137.9, 619.0)">e</text><text xml:space="preserve" font-family="Helvetica-Light" font-size="76.0" fill="#000000" transform="matrix(1.00, 0.00, -0.00, -1.00, 180.1, 619.0)">l</text><text xml:space="preserve" font-family="Helvetica-Light" font-size="76.0" fill="#000000" transform="matrix(1.00, 0.00, -0.00, -1.00, 197.0, 619.0)">e</text><text xml:space="preserve" font-family="Helvetica-Light" font-size="76.0" fill="#000000" transform="matrix(1.00, 0.00, -0.00, -1.00, 239.3, 619.0)">t</text><text xml:space="preserve" font-family="Helvetica-Light" font-size="76.0" fill="#000000" transform="matrix(1.00, 0.00, -0.00, -1.00, 260.4, 619.0)">i</text><text xml:space="preserve" font-family="Helvetica-Light" font-size="76.0" fill="#000000" transform="matrix(1.00, 0.00, -0.00, -1.00, 277.3, 619.0)">n</text><text xml:space="preserve" font-family="Helvetica-Light" font-size="76.0" fill="#000000" transform="matrix(1.00, 0.00, -0.00, -1.00, 319.5, 619.0)">g</text><text xml:space="preserve" font-family="Helvetica-Light" font-size="76.0" fill="#000000" transform="matrix(1.00, 0.00, -0.00, -1.00, 365.9, 619.0)"> </text><text xml:space="preserve" font-family="Helvetica-Light" font-size="76.0" fill="#000000" transform="matrix(1.00, 0.00, -0.00, -1.00, 387.1, 619.0)">a</text><text xml:space="preserve" font-family="Helvetica-Light" font-size="76.0" fill="#000000" transform="matrix(1.00, 0.00, -0.00, -1.00, 429.3, 619.0)"> </text><text xml:space="preserve" font-family="Helvetica-Light" font-size="76.0" fill="#000000" transform="matrix(1.00, 0.00, -0.00, -1.00, 450.5, 619.0)">K</text><text xml:space="preserve" font-family="Helvetica-Light" font-size="76.0" fill="#000000" transform="matrix(1.00, 0.00, -0.00, -1.00, 501.2, 619.0)">e</text><text xml:space="preserve" font-family="Helvetica-Light" font-size="76.0" fill="#000000" transform="matrix(1.00, 0.00, -0.00, -1.00, 543.4, 619.0)">y</text><text xml:space="preserve" font-family="Helvetica-Light" font-size="76.0" fill="#000000" transform="matrix(1.00, 0.00, -0.00, -1.00, 581.4, 619.0)">/</text><text xml:space="preserve" font-family="Helvetica-Light" font-size="76.0" fill="#000000" transform="matrix(1.00, 0.00, -0.00, -1.00, 602.5, 619.0)">V</text><text xml:space="preserve" font-family="Helvetica-Light" font-size="76.0" fill="#000000" transform="matrix(1.00, 0.00, -0.00, -1.00, 644.8, 619.0)">a</text><text xml:space="preserve" font-family="Helvetica-Light" font-size="76.0" fill="#000000" transform="matrix(1.00, 0.00, -0.00, -1.00, 687.0, 619.0)">l</text><text xml:space="preserve" font-family="Helvetica-Light" font-size="76.0" fill="#000000" transform="matrix(1.00, 0.00, -0.00, -1.00, 703.9, 619.0)">u</text><text xml:space="preserve" font-family="Helvetica-Light" font-size="76.0" fill="#000000" transform="matrix(1.00, 0.00, -0.00, -1.00, 746.2, 619.0)">e</text><text xml:space="preserve" font-family="Helvetica-Light" font-size="76.0" fill="#000000" transform="matrix(1.00, 0.00, -0.00, -1.00, 788.4, 619.0)"> </text><text xml:space="preserve" font-family="Helvetica-Light" font-size="76.0" fill="#000000" transform="matrix(1.00, 0.00, -0.00, -1.00, 809.6, 619.0)">P</text><text xml:space="preserve" font-family="Helvetica-Light" font-size="76.0" fill="#000000" transform="matrix(1.00, 0.00, -0.00, -1.00, 856.0, 619.0)">a</text><text xml:space="preserve" font-family="Helvetica-Light" font-size="76.0" fill="#000000" transform="matrix(1.00, 0.00, -0.00, -1.00, 898.3, 619.0)">i</text><text xml:space="preserve" font-family="Helvetica-Light" font-size="76.0" fill="#000000" transform="matrix(1.00, 0.00, -0.00, -1.00, 915.1, 619.0)">r</text><text xml:space="preserve" font-family="CourierNewPS-BoldMT" font-weight="bold" font-size="44.0" fill="#000000" transform="matrix(1.00, 0.00, -0.00, -1.00, 222.0, 273.0)">d</text><text xml:space="preserve" font-family="CourierNewPS-BoldMT" font-weight="bold" font-size="44.0" fill="#000000" transform="matrix(1.00, 0.00, -0.00, -1.00, 248.4, 273.0)">e</text><text xml:space="preserve" font-family="CourierNewPS-BoldMT" font-weight="bold" font-size="44.0" fill="#000000" transform="matrix(1.00, 0.00, -0.00, -1.00, 274.8, 273.0)">l</text><text xml:space="preserve" font-family="CourierNewPS-BoldMT" font-weight="bold" font-size="44.0" fill="#000000" transform="matrix(1.00, 0.00, -0.00, -1.00, 301.2, 273.0)">e</text><text xml:space="preserve" font-family="CourierNewPS-BoldMT" font-weight="bold" font-size="44.0" fill="#000000" transform="matrix(1.00, 0.00, -0.00, -1.00, 327.6, 273.0)">t</text><text xml:space="preserve" font-family="CourierNewPS-BoldMT" font-weight="bold" font-size="44.0" fill="#000000" transform="matrix(1.00, 0.00, -0.00, -1.00, 354.0, 273.0)">e</text><text xml:space="preserve" font-family="CourierNewPS-BoldMT" font-weight="bold" font-size="44.0" fill="#000000" transform="matrix(1.00, 0.00, -0.00, -1.00, 380.5, 273.0)"> </text><text xml:space="preserve" font-family="CourierNewPS-BoldMT" font-weight="bold" font-size="44.0" fill="#000000" transform="matrix(1.00, 0.00, -0.00, -1.00, 406.9, 273.0)">c</text><text xml:space="preserve" font-family="CourierNewPS-BoldMT" font-weight="bold" font-size="44.0" fill="#000000" transform="matrix(1.00, 0.00, -0.00, -1.00, 433.3, 273.0)">o</text><text xml:space="preserve" font-family="CourierNewPS-BoldMT" font-weight="bold" font-size="44.0" fill="#000000" transform="matrix(1.00, 0.00, -0.00, -1.00, 459.7, 273.0)">u</text><text xml:space="preserve" font-family="CourierNewPS-BoldMT" font-weight="bold" font-size="44.0" fill="#000000" transform="matrix(1.00, 0.00, -0.00, -1.00, 486.1, 273.0)">r</text><text xml:space="preserve" font-family="CourierNewPS-BoldMT" font-weight="bold" font-size="44.0" fill="#000000" transform="matrix(1.00, 0.00, -0.00, -1.00, 512.5, 273.0)">s</text><text xml:space="preserve" font-family="CourierNewPS-BoldMT" font-weight="bold" font-size="44.0" fill="#000000" transform="matrix(1.00, 0.00, -0.00, -1.00, 538.9, 273.0)">e</text><text xml:space="preserve" font-family="CourierNewPSMT" font-size="44.0" fill="#000000" transform="matrix(1.00, 0.00, -0.00, -1.00, 565.3, 273.0)">[</text><text xml:space="preserve" font-family="CourierNewPSMT" font-size="44.0" fill="#CC1C00" transform="matrix(1.00, 0.00, -0.00, -1.00, 591.7, 273.0)">"</text><text xml:space="preserve" font-family="CourierNewPSMT" font-size="44.0" fill="#CC1C00" transform="matrix(1.00, 0.00, -0.00, -1.00, 618.1, 273.0)">t</text><text xml:space="preserve" font-family="CourierNewPSMT" font-size="44.0" fill="#CC1C00" transform="matrix(1.00, 0.00, -0.00, -1.00, 644.5, 273.0)">i</text><text xml:space="preserve" font-family="CourierNewPSMT" font-size="44.0" fill="#CC1C00" transform="matrix(1.00, 0.00, -0.00, -1.00, 670.9, 273.0)">t</text><text xml:space="preserve" font-family="CourierNewPSMT" font-size="44.0" fill="#CC1C00" transform="matrix(1.00, 0.00, -0.00, -1.00, 697.3, 273.0)">l</text><text xml:space="preserve" font-family="CourierNewPSMT" font-size="44.0" fill="#CC1C00" transform="matrix(1.00, 0.00, -0.00, -1.00, 723.7, 273.0)">e</text><text xml:space="preserve" font-family="CourierNewPSMT" font-size="44.0" fill="#CC1C00" transform="matrix(1.00, 0.00, -0.00, -1.00, 750.1, 273.0)">"</text><text xml:space="preserve" font-family="CourierNewPSMT" font-size="44.0" fill="#000000" transform="matrix(1.00, 0.00, -0.00, -1.00, 776.5, 273.0)">]</text></g></svg>